<?xml version="1.0" encoding="UTF-8" standalone="no"?>
<svg
   xmlns:dc="http://purl.org/dc/elements/1.1/"
   xmlns:cc="http://creativecommons.org/ns#"
   xmlns:rdf="http://www.w3.org/1999/02/22-rdf-syntax-ns#"
   xmlns:svg="http://www.w3.org/2000/svg"
   xmlns="http://www.w3.org/2000/svg"
   xmlns:sodipodi="http://sodipodi.sourceforge.net/DTD/sodipodi-0.dtd"
   xmlns:inkscape="http://www.inkscape.org/namespaces/inkscape"
   width="959"
   height="593"
   id="svg2"
   sodipodi:version="0.32"
   inkscape:version="1.0.1 (3bc2e813f5, 2020-09-07)"
   sodipodi:docname="usa-labels-full.svg"
   inkscape:output_extension="org.inkscape.output.svg.inkscape"
   version="1.1">
  <style
     id="style172">
        #WI:hover, #IL:hover, #IN:hover, #OH:hover, #KY:hover, #MO:hover {
            fill: #f00 !important;
            transition: fill 0.2s;
        }
        a {
            cursor : pointer;
        }
   </style>
  <metadata
     id="metadata62">
    <rdf:RDF>
      <cc:Work
         rdf:about="">
        <dc:format>image/svg+xml</dc:format>
        <dc:type
           rdf:resource="http://purl.org/dc/dcmitype/StillImage" />
        <dc:title />
      </cc:Work>
    </rdf:RDF>
  </metadata>
  <defs
     id="defs60">
    <inkscape:perspective
       sodipodi:type="inkscape:persp3d"
       inkscape:vp_x="0 : 296.5 : 1"
       inkscape:vp_y="0 : 1000 : 0"
       inkscape:vp_z="959 : 296.5 : 1"
       inkscape:persp3d-origin="479.5 : 197.66667 : 1"
       id="perspective64" />
  </defs>
  <sodipodi:namedview
     inkscape:window-height="705"
     inkscape:window-width="1366"
     inkscape:pageshadow="2"
     inkscape:pageopacity="0.0"
     guidetolerance="10.0"
     gridtolerance="10.0"
     objecttolerance="10.0"
     borderopacity="1.0"
     bordercolor="#666666"
     pagecolor="#ffffff"
     id="base"
     showgrid="false"
     inkscape:zoom="0.63775223"
     inkscape:cx="482.05801"
     inkscape:cy="290.3543"
     inkscape:window-x="-8"
     inkscape:window-y="-8"
     inkscape:current-layer="svg2"
     showguides="true"
     inkscape:guide-bbox="true"
     inkscape:window-maximized="1"
     inkscape:document-rotation="0" />
  <text
     x="587.42737"
     y="400.92242"
     id="text891"
     style="font-style:normal;font-stretch:normal;font-size:10px;line-height:125%;font-family:Verdana;text-align:start;writing-mode:lr-tb;text-anchor:start;fill:#000000;stroke-width:3pt" />
  <path
     style="fill:#d3d3d3;fill-opacity:1;stroke:#ffffff;stroke-width:0.75;stroke-miterlimit:4;stroke-dasharray:none;stroke-opacity:1"
     d="m 279.83845,53.781696 -2.28125,0.5625 -5.375,3.875 -2.1875,0.8125 -1.8125,2.0625 1.59375,1.125 2.0625,-0.90625 3.3125,-1.9375 5.15625,-5.15625 z m 11.125,14.21875 -4.6875,0.5 -4.34375,2.40625 -2.28125,2.28125 -1.28125,1.75 -1.78125,0.8125 -1.9375,2.90625 -0.15625,1.3125 -4.375,2.09375 -2.40625,1.9375 -6,0.96875 -0.65625,0.65625 v 0.96875 l -3.53125,2.25 -2.75,0.8125 -0.71875,0.59375 3.71875,5.125 7.875,1.15625 8.25,2.1875 2.84375,1.03125 12.125,2.718754 2.0625,2.28125 3.53125,1.375 1.9375,10.3125 1.375,1.03125 1.1875,1.03125 3.15625,-7 0.96875,-4.0625 1.96875,-4.34375 0.78125,-0.1875 1.15625,1.625 h 0.625 l 4.53125,-2.40625 1.46875,1.59375 0.46875,0.15625 1.3125,-1.125 1.125,-3.062504 2.40625,-0.8125 6.96875,-0.65625 1.9375,-2.5625 5.15625,-0.1875 5.84375,1.3125 h 1.78125 l 3.21875,-1.46875 2.25,0.15625 2.125,-0.625 3.71875,0.46875 0.8125,0.34375 1.28125,-0.34375 -1.28125,-0.96875 -1.3125,-0.625 -3.21875,-3.09375 v -6.9375 l -1.46875,-0.5 -1.125,1.15625 -6.15625,1.59375 -1.9375,0.5 -2.90625,-0.8125 -0.46875,-0.3125 v -5.65625 l -1.46875,-0.1875 -2.59375,1.3125 -4.5,1.9375 -6.65625,0.3125 -3.375,1.125 -4.0625,3.5625 -1.59375,0.96875 h -1.15625 l -1.28125,0.8125 -1.625,-0.46875 -1.59375,-1.3125 -1.46875,0.96875 -3.875,0.15625 -2.75,-2.75 -1.46875,-3.0625 -1.4375,-1.125 -3.25,-0.96875 h -2.25 l -1.28125,-1.28125 -3.5625,2.90625 -0.96875,1.125 -0.8125,-0.5 0.3125,-2.5625 2.4375,-3.25 0.46875,-2.4375 2.28125,-0.78125 1.4375,-3.09375 3.71875,-0.96875 0.34375,-0.96875 z m 66.53125,23.1875 -2.1875,0.25 -1.59375,0.15625 -0.34375,1.125 0.96875,0.5 0.65625,2.5 3.25,0.15625 1.28125,-1.1875 c 0,0 -0.0829,-1.46333 -0.40625,-1.625 -0.32333,-0.16166 -1.625,-1.875 -1.625,-1.875 z m -16.25,9.312504 -2.90625,1.78125 -2.90625,2.25 0.3125,3.5625 0.96875,0.3125 2.125,0.5 0.46875,0.8125 -2.59375,0.8125 -2.5625,0.3125 -1.46875,1.78125 -0.3125,2.09375 0.3125,1.625 0.3125,5.5 -3.53125,2.09375 -0.65625,-0.15625 v -4.21875 l 1.28125,-2.40625 0.65625,-2.4375 -0.8125,-0.8125 -1.9375,0.8125 -0.96875,4.21875 -2.75,1.125 -1.78125,1.9375 -0.15625,0.96875 0.65625,0.8125 -0.65625,2.59375 -2.25,0.46875 v 1.125 l 0.78125,2.4375 -1.125,6.125 -1.59375,4.0625 0.625,4.6875 0.5,1.125 -0.8125,2.4375 -0.3125,0.78125 -0.34375,2.75 3.5625,6 2.90625,6.46875 1.46875,4.84375 -0.8125,4.6875 -0.96875,5.96875 -2.4375,5.1875 -0.3125,2.75 -3.25,3.09375 4.40625,-0.1875 21.40625,-2.25 7.28125,-1 0.0938,1.6875 6.84375,-1.21875 10.3125,-1.5 3.84375,-0.46875 0.15625,-0.59375 0.15625,-1.4375 2.09375,-3.71875 2,-1.75 -0.21875,-5.0625 1.59375,-1.59375 1.09375,-0.34375 0.21875,-3.53125 1.53125,-3.03125 1.0625,0.59375 0.15625,0.65625 0.8125,0.15625 1.9375,-0.96875 -0.3125,-9.53125 -3.25,-8.25 -2.25,-9.0625 -2.4375,-3.21875 -2.59375,-1.78125 -1.59375,1.125 -3.90625,1.78125 -1.9375,5 -2.75,3.71875 -1.125,0.65625 -1.4375,-0.65625 c 0,0 -2.59916,-1.44711 -2.4375,-2.09375 0.16166,-0.64664 0.5,-5 0.5,-5 l 3.375,-1.3125 0.8125,-3.375 0.65625,-2.59375 2.40625,-1.625 -0.3125,-10.03125 -1.625,-2.25 -1.28125,-0.8125 -0.8125,-2.09375 0.8125,-0.8125 1.625,0.3125 0.15625,-1.625 -2.4375,-2.25 -1.28125,-2.59375 h -2.59375 l -4.53125,-1.4375 -5.5,-3.40625 h -2.75 l -0.625,0.65625 -0.96875,-0.5 z"
     id="MI" />
  <path
     style="fill:#d3d3d3;fill-opacity:1;stroke:#ffffff;stroke-width:0.75;stroke-miterlimit:4;stroke-dasharray:none;stroke-opacity:1"
     id="NY"
     d="m 516.93664,167.7773 -1.13163,-0.96996 -2.58658,-0.16166 -2.26324,-1.93992 -1.63061,-6.12913 -3.45846,0.0905 -2.44371,-2.7082 -19.38532,4.38194 -43.00178,8.72969 -7.52965,1.22799 -0.73816,-6.46834 1.4281,-1.12538 1.29328,-1.13162 0.96997,-1.61661 1.77826,-1.13162 1.93993,-1.77827 0.48498,-1.6166 2.10158,-2.74823 1.13163,-0.96996 -0.16166,-0.96997 -1.29329,-3.07154 -1.77826,-0.16166 -1.93993,-6.1431 2.90989,-1.77827 4.36483,-1.45494 4.04152,-1.29329 3.23321,-0.48498 6.30475,-0.16166 1.93993,1.29329 1.6166,0.16166 2.10159,-1.29329 2.58657,-1.13162 5.17313,-0.48498 2.10159,-1.77827 1.77826,-3.23321 1.61661,-1.93992 h 2.10158 l 1.93993,-1.13163 0.16166,-2.26324 -1.45494,-2.10159 -0.32332,-1.45494 1.13162,-2.10159 v -1.45494 h -1.77827 l -1.77826,-0.8083 -0.8083,-1.13163 -0.16166,-2.58657 5.81977,-5.49645 0.64664,-0.8083 1.45495,-2.90989 2.90989,-4.526504 2.74823,-3.71819 2.10158,-2.4249 2.4151,-1.82561 3.08136,-1.24594 5.49645,-1.29329 3.23321,0.16166 4.5265,-1.45494 7.56519,-2.07117 0.51979,4.97967 2.42492,6.46644 0.8083,5.173154 -0.96996,3.87986 2.58657,4.5265 0.8083,2.10159 -0.8083,2.9099 2.9099,1.29328 0.64664,0.32332 3.07156,10.99294 -0.53629,5.05967 -0.48498,10.83127 0.8083,5.49647 0.8083,3.55654 1.45495,7.27474 v 8.08304 l -1.13163,2.26325 1.83933,1.99279 0.79655,1.67842 -1.93992,1.77827 0.32332,1.29328 1.29328,-0.32332 1.45495,-1.29328 2.26324,-2.58657 1.13163,-0.64664 1.6166,0.64664 2.26325,0.16166 7.92136,-3.87985 2.90989,-2.74823 1.29328,-1.45494 4.20317,1.6166 -3.39487,3.55653 -3.87985,2.90989 -7.11306,5.33479 -2.58656,0.96997 -5.81978,1.93992 -4.04151,1.13163 -1.17474,-0.53293 -0.24402,-3.68853 0.48498,-2.74824 -0.16166,-2.10158 -2.81351,-1.699 -4.5265,-0.96997 -3.87986,-1.13162 z" />
  <path
     style="fill:#d3d3d3;fill-opacity:1;stroke:#ffffff;stroke-width:0.75;stroke-miterlimit:4;stroke-dasharray:none;stroke-opacity:1"
     id="PA"
     d="m 511.6809,203.72375 1.30842,-0.271 2.32953,-1.25325 1.21188,-2.48307 1.61661,-2.26325 3.23321,-3.07156 v -0.8083 l -2.42491,-1.6166 -3.55654,-2.42492 -0.96996,-2.58657 -2.74824,-0.32332 -0.16166,-1.13163 -0.8083,-2.74823 2.26326,-1.13162 0.16166,-2.42492 -1.2933,-1.29329 0.16166,-1.61661 1.93994,-3.07155 v -3.07156 l 2.69763,-2.64588 -0.92028,-0.67498 -2.52408,-0.19291 -2.29449,-1.93992 -1.54992,-6.11606 -3.50458,0.10052 -2.45523,-2.70333 -18.09099,4.19777 -43.00178,8.72969 -8.89135,1.45494 -0.62067,-6.52139 -5.36253,5.06765 -1.29329,0.48498 -4.20229,3.00889 2.91076,19.13745 2.48166,9.72936 3.5718,19.26149 3.26931,-0.63768 11.94358,-1.50247 37.92663,-7.6652 14.87621,-2.82332 8.30035,-1.62236 0.26711,-0.23853 2.1016,-1.61662 z"
     sodipodi:nodetypes="cccccccccccccccccccccccccccccccccccccccccccc" />
  <path
     style="fill:#d3d3d3;fill-opacity:1;stroke:#ffffff;stroke-width:0.75;stroke-miterlimit:4;stroke-dasharray:none;stroke-opacity:1"
     id="NJ"
     d="m 516.23662,167.49186 -2.32255,2.73427 v 3.07156 l -1.93994,3.07155 -0.16166,1.61662 1.2933,1.29328 -0.16166,2.42492 -2.26326,1.13162 0.8083,2.74823 0.16166,1.13163 2.74824,0.32332 0.96996,2.58657 3.55654,2.42492 2.42491,1.6166 v 0.80831 l -2.98321,2.69656 -1.61661,2.26324 -1.45495,2.74824 -2.26325,1.29328 -0.46245,1.60248 -0.2425,1.21246 -0.60923,2.60674 1.09227,2.24419 3.23321,2.90989 4.84981,2.26325 4.04151,0.64664 0.16166,1.45494 -0.8083,0.96996 0.32332,2.74823 h 0.8083 l 2.10159,-2.4249 0.8083,-4.84982 2.74823,-4.04151 3.07155,-6.46642 1.13162,-5.49645 -0.64664,-1.13163 -0.16166,-9.37631 -1.61661,-3.39486 -1.13162,0.8083 -2.74823,0.32332 -0.48498,-0.48498 1.13163,-0.96997 2.10158,-1.93992 0.0631,-1.09383 -0.38439,-3.43384 0.57337,-2.74824 -0.11747,-1.96901 -2.80754,-1.75035 -5.09214,-1.17576 -4.13744,-1.38163 z"
     sodipodi:nodetypes="ccccccccccccccccccccccccccccccccccccccccccccccccccc" />
  <path
     style="fill:#d3d3d3;fill-opacity:1;stroke:#ffffff;stroke-width:0.75;stroke-linecap:butt;stroke-miterlimit:4;stroke-dasharray:none;stroke-opacity:1"
     id="DE"
     d="m 512.1833,207.3108 0.36831,-2.14689 0.37507,-1.69105 -1.623,0.39776 -1.61546,0.46756 -2.20626,1.7643 1.72012,5.04288 2.26326,5.65812 2.10158,9.69965 1.61662,6.30478 5.01148,-0.16166 6.14212,-1.18068 -2.26423,-7.38627 -0.96997,0.48498 -3.55653,-2.4249 -1.77826,-4.68816 -1.93993,-3.55653 -3.14712,-2.87031 -0.86416,-2.09812 z"
     sodipodi:nodetypes="cccccccccccccccccccc" />
  <path
     style="fill:#d3d3d3;fill-opacity:1;stroke:#ffffff;stroke-width:0.75;stroke-miterlimit:4;stroke-dasharray:none;stroke-opacity:1"
     id="MD"
     d="m 526.34895,231.44646 -6.00855,1.20384 -5.1429,0.11746 -1.84356,-6.92233 -1.92481,-9.16932 -2.57262,-6.18845 -1.28838,-4.39833 -7.50602,1.62236 -14.87621,2.82332 -37.45143,7.5509 1.1313,5.01166 0.96996,5.65811 0.32332,-0.32332 2.1016,-2.4249 2.26324,-2.61766 2.42491,-0.61556 1.45496,-1.45495 1.77826,-2.58657 1.29328,0.64665 2.90989,-0.32333 2.58658,-2.10158 2.00689,-1.45327 1.84523,-0.48498 1.64435,1.12995 2.90989,1.45494 1.93992,1.77827 1.21246,1.53578 4.12235,1.69743 v 2.90989 l 5.49646,1.29329 1.14444,0.54198 1.4119,-2.02832 2.88197,1.97016 -1.27817,2.48193 -0.76527,3.98566 -1.77826,2.58657 v 2.10159 l 0.64664,1.77827 5.06395,1.35569 4.3111,-0.0617 3.07154,0.96997 2.10159,0.32332 0.96996,-2.10159 -1.45494,-2.10158 v -1.77827 l -2.42491,-2.10159 -2.10158,-5.49645 1.29328,-5.3348 -0.16166,-2.10158 -1.29328,-1.29329 c 0,0 1.45494,-1.6166 1.45494,-2.26324 0,-0.64665 0.48498,-2.10159 0.48498,-2.10159 l 1.93993,-1.29328 1.93992,-1.61661 0.48498,0.96997 -1.45494,1.6166 -1.29328,3.71819 0.32332,1.13162 1.77826,0.32332 0.48498,5.49646 -2.10158,0.96996 0.32332,3.55653 0.48498,-0.16166 1.13162,-1.93992 1.61661,1.77826 -1.61661,1.29329 -0.32332,3.39487 2.58657,3.39487 3.87985,0.48498 1.61661,-0.8083 3.23655,4.18293 1.35835,0.5363 6.65367,-2.79695 2.00758,-4.02387 z m -15.96958,9.02872 1.13162,2.50575 0.16166,1.77827 1.13163,1.8591 c 0,0 0.88914,-0.88914 0.88914,-1.21246 0,-0.32332 -0.72747,-3.07156 -0.72747,-3.07156 l -0.72748,-2.34409 z"
     sodipodi:nodetypes="ccccccccccccccccccccccccccccccccccccccccccccccccccsccccccccccccccccccccccccccccsccc" />
  <path
     style="fill:#d3d3d3;fill-opacity:1;stroke:#ffffff;stroke-width:0.75;stroke-miterlimit:4;stroke-dasharray:none;stroke-opacity:1"
     id="VA"
     d="m 518.19605,245.10062 -0.14391,-1.94703 6.45343,-2.54988 -0.77041,3.21784 -2.91995,3.77911 -0.41809,4.58582 0.46175,3.39044 -1.82797,4.97816 -2.16427,1.91614 -1.47034,-4.64081 0.44589,-5.44911 1.587,-4.18307 z m 3.34019,28.30136 -58.17418,12.57543 -37.42697,5.27907 -6.67833,-0.37518 -2.58525,1.92638 -7.33913,0.22069 -8.38211,0.97767 -10.91496,1.61462 10.46943,-5.6112 -0.0131,-2.07493 1.52005,-2.14613 10.55378,-11.50143 3.94672,4.47746 3.78301,0.96398 2.54346,-1.14032 2.23722,-1.31116 2.53661,1.34352 3.91417,-1.42776 1.87673,-4.55634 2.60092,0.54002 2.85524,-2.13125 1.79927,0.4936 2.82721,-3.67657 0.34825,-2.08311 -0.96366,-1.27557 1.00277,-1.86663 5.27427,-12.27715 0.61677,-5.73508 1.22889,-0.52354 2.17853,2.44287 3.93586,-0.30117 1.92921,-7.57363 2.79399,-0.56086 1.04975,-2.74107 2.57982,-2.34688 2.77183,-5.69519 0.0849,-5.06755 9.82151,3.82282 c 0.68085,0.34042 0.83288,-5.04915 0.83288,-5.04915 l 3.65256,1.59833 0.0683,2.93816 5.78425,1.29949 2.13295,1.1762 1.65992,2.05569 -0.65455,3.64867 -1.94744,2.59098 0.10985,2.05907 0.58896,1.85291 4.97875,1.26843 4.45127,0.0399 3.06883,0.95864 1.94351,0.3093 0.71481,3.08846 3.19044,0.40253 0.86807,1.20002 -0.43949,4.69008 1.37473,1.10255 -0.47895,1.93039 1.22941,0.78977 -0.2218,1.3846 -2.69399,-0.0949 0.089,1.61552 2.28099,1.54287 0.12154,1.4119 1.77311,1.78538 0.49179,2.52413 -2.55304,1.38131 1.57222,1.4943 5.80102,-1.68583 z"
     sodipodi:nodetypes="ccccccccccccccccccccccccccccccccccccccccccccccccccccccccccccccccccccccccccccccccccc" />
  <path
     style="fill:#d3d3d3;fill-opacity:1;stroke:#ffffff;stroke-width:0.75;stroke-miterlimit:4;stroke-dasharray:none;stroke-opacity:1"
     id="WV"
     d="m 447.74271,217.99901 1.11201,4.94453 1.08344,6.03133 2.13029,-2.58034 2.26324,-3.07156 2.53838,-0.61555 1.45495,-1.45494 1.77827,-2.58657 1.44498,0.64664 2.90989,-0.32332 2.58658,-2.10159 2.00689,-1.45326 1.84523,-0.48499 1.30392,1.01647 3.64325,1.82163 1.93993,1.77827 1.37412,1.29328 -0.76172,5.55494 -5.83491,-2.54122 -4.24525,-1.62202 -0.10114,5.17843 -2.74764,5.53673 -2.53003,2.42666 -1.19209,2.74939 -2.64358,0.5001 -0.89784,3.60188 -1.04323,3.94967 -3.96824,0.34074 -2.32373,-2.43888 -1.07115,0.55941 -0.63268,5.4697 -1.35029,3.5345 -4.9584,10.95497 0.89669,1.1607 -0.20586,1.90854 -2.80869,3.88447 -1.8085,-0.54429 -2.96805,2.15974 -2.54238,-0.57221 -1.99923,4.55557 c 0,0 -3.25931,1.43022 -3.92291,1.36772 -0.16051,-0.0151 -2.4691,-1.2491 -2.4691,-1.2491 l -2.33652,1.37937 -2.4098,1.0444 -3.74469,-0.88912 -1.1214,-1.16828 -2.19222,-3.02336 -3.14259,-1.98812 -1.71157,-3.62324 -4.28488,-3.46819 -0.64665,-2.26325 -2.58657,-1.45495 -0.80831,-1.6166 -0.24249,-5.25398 2.18242,-0.0808 1.93994,-0.8083 0.16166,-2.74823 1.6166,-1.45495 0.16166,-5.01148 0.96996,-3.87986 1.29329,-0.64664 1.29328,1.13162 0.48499,1.77827 1.77827,-0.96997 0.48498,-1.6166 -1.13162,-1.77827 v -2.42491 l 0.96996,-1.29329 2.26325,-3.39487 1.29328,-1.45494 2.1016,0.48498 2.26324,-1.61662 3.07155,-3.39487 2.26326,-3.87986 0.32332,-5.65811 0.48498,-5.01149 v -4.68816 l -1.13162,-3.07155 0.96996,-1.45496 1.28348,-1.29328 3.49125,19.82712 4.63101,-0.75115 z"
     sodipodi:nodetypes="ccccccccccccccccccccccccccccccccccccccccscccccccccccccccccccccccccccccccccccccccccc" />
     <a href="https://google.com/search?q=Ohio" target="/blank">
  <path
     style="fill:#d3d3d3;fill-opacity:1;stroke:#ffffff;stroke-width:0.75;stroke-miterlimit:4;stroke-dasharray:none;stroke-opacity:1"
     id="OH"
     d="m 421.88217,172.36002 -6.09354,4.05335 -3.87985,2.26325 -3.39487,3.71819 -4.04151,3.87985 -3.23321,0.8083 -2.90989,0.48498 -5.49646,2.58657 -2.10158,0.16166 -3.39487,-3.07155 -5.17314,0.64665 -2.58656,-1.45495 -2.38107,-1.35083 -4.89257,0.70341 -10.18462,1.61661 -11.20687,2.18473 1.29329,14.63028 1.77827,13.74117 2.58656,23.4408 0.56582,4.83117 4.12235,-0.12902 2.42491,-0.80831 3.3638,1.50314 2.07049,4.36483 5.13894,-0.0171 1.89174,2.1187 1.76117,-0.0653 2.53839,-1.34146 2.50417,0.3715 5.42128,0.48268 1.72697,-2.13268 2.34565,-1.29328 2.07049,-0.68085 0.64664,2.74824 1.77828,0.96996 3.47569,2.34407 2.18242,-0.0808 1.33312,-0.49248 0.18471,-2.76153 1.58536,-1.45496 0.0992,-4.79272 c 0,0 1.02396,-4.10906 1.02396,-4.10906 l 1.29927,-0.60128 1.32135,1.14774 0.53815,1.69702 1.71913,-1.03742 0.43898,-1.46075 -1.11669,-1.90306 0.0663,-2.31443 0.749,-1.07231 2.15276,-3.30648 1.05022,-1.54334 2.10159,0.48498 2.26325,-1.61661 3.07155,-3.39487 2.77149,-4.07873 0.32033,-5.05551 0.48498,-5.01149 -0.17678,-5.30688 -0.95484,-2.89478 0.35124,-1.18978 1.80439,-1.75011 -2.28879,-9.04733 z"
     sodipodi:nodetypes="cccccccccccccccccccccccccccccccccccccccccccccccccccccccccccccccc" />
     </a>
     <a href="https://google.com/search?q=Indiana" target="/blank">
  <path
     style="fill:#d3d3d3;fill-opacity:1;stroke:#ffffff;stroke-width:0.75;stroke-miterlimit:4;stroke-dasharray:none;stroke-opacity:1"
     id="IN"
     d="m 306.12674,279.00302 0.0653,-2.85858 0.48499,-4.52651 2.26324,-2.90988 1.77828,-3.87987 2.58656,-4.20317 -0.48498,-5.81979 -1.77826,-2.74823 -0.32332,-3.23321 0.8083,-5.49647 -0.48498,-6.95141 -1.2933,-16.00441 -1.29328,-15.35776 -0.97047,-11.72002 3.07106,0.88951 1.45495,0.96996 1.13162,-0.32332 2.10159,-1.93992 2.82957,-1.61699 5.0928,-0.16204 21.98587,-2.26326 5.57573,-0.53316 1.50314,15.95621 4.25135,36.84155 0.59846,5.7716 -0.3715,2.26325 1.22798,1.79537 0.0964,1.37255 -2.52129,1.59951 -3.53943,1.55131 -3.20213,0.55028 -0.59846,4.86693 -4.57469,3.31247 -2.79642,4.01044 0.32332,2.37673 -0.58134,1.5342 h -3.32647 l -1.58553,-1.6166 -2.49331,1.2622 -2.68296,1.50314 0.16167,3.05445 -1.19379,0.25803 -0.46788,-1.01814 -2.16688,-1.50314 -3.25032,1.34148 -1.55131,3.00625 -1.43784,-0.8083 -1.45495,-1.59951 -4.46434,0.48499 -5.59283,0.96996 z" />
   </a>
   <a href="https://google.com/search?q=Illinois" target="/blank">
  <path
     style="fill:#d3d3d3;fill-opacity:1;stroke:#ffffff;stroke-width:0.75;stroke-miterlimit:4;stroke-dasharray:none;stroke-opacity:1"
     id="IL"
     d="m 306.09865,279.37414 0.0312,-3.22971 0.56739,-4.64596 2.33253,-2.91586 1.86665,-4.07576 2.23302,-3.99533 -0.3715,-5.2524 -2.00521,-3.54257 -0.0964,-3.34668 0.69483,-5.26951 -0.82541,-7.17837 -1.06634,-15.77745 -1.29328,-15.01734 -0.92228,-11.6392 -0.27251,-0.92139 -0.8083,-2.58657 -1.29328,-3.71819 -1.61661,-1.77827 -1.45494,-2.58656 -0.23357,-5.48896 -45.79643,2.59825 0.22862,2.37195 2.28623,0.68587 0.91448,1.14311 0.45725,1.82898 3.88658,3.42934 0.68588,2.28623 -0.68588,3.42934 -1.82898,3.65796 -0.68586,2.51484 -2.28623,1.82899 -1.82898,0.68587 -5.25832,1.37173 -0.68587,1.82898 -0.68587,2.05761 0.68587,1.37174 1.82898,1.60036 -0.22862,4.1152 -1.82899,1.60036 -0.68586,1.60036 v 2.74347 l -1.82898,0.45724 -1.60036,1.14312 -0.22862,1.37174 0.22862,2.0576 -1.71467,1.31457 -1.0288,2.80064 0.45724,3.65795 2.28623,7.31593 7.31593,7.54455 5.48693,3.65796 -0.22862,4.34383 0.9145,1.37174 6.40143,0.45724 2.74347,1.37174 -0.68586,3.65796 -2.28623,5.94419 -0.68587,3.20072 2.28622,3.88658 6.40144,5.25832 4.57246,0.68587 2.05759,5.0297 2.05761,3.20071 -0.91449,2.97209 1.60036,4.11521 1.82898,2.05761 1.41403,-0.88069 0.90766,-2.07479 2.21308,-1.7472 2.13147,-0.6144 2.60253,1.1798 3.62699,1.3757 1.18895,-0.29823 0.19987,-2.25845 -1.2873,-2.41179 0.30422,-2.37672 1.8384,-1.34745 3.02254,-0.81029 1.2609,-0.45852 -0.61261,-1.38688 -0.79137,-2.35437 1.4326,-0.98096 z"
     sodipodi:nodetypes="ccccccccccccccccccccccccccccccccccccccccccccccccccccccccccccccccccccccccccccccccccc" />
   </a>
   <a href="https://google.com/search?q=WINCOSIN" target="/blank">
  <path
     style="fill:#d3d3d3;fill-opacity:1;stroke:#ffffff;stroke-width:0.75;stroke-miterlimit:4;stroke-dasharray:none;stroke-opacity:1"
     id="WI"
     d="m 303.62309,176.40036 -0.0667,-3.15742 -1.17911,-4.5265 -0.64664,-6.14309 -1.13162,-2.42491 0.96996,-3.07155 0.8083,-2.90989 1.45495,-2.58656 -0.64665,-3.39487 -0.64664,-3.55653 0.48498,-1.77827 1.93993,-2.42491 0.16166,-2.74823 -0.8083,-1.29328 0.64664,-2.58657 -0.45252,-4.17071 2.74823,-5.65811 2.90989,-6.78974 0.16166,-2.26325 -0.32332,-0.96996 -0.80831,0.48498 -4.20317,6.30476 -2.74823,4.04151 -1.93992,1.77827 -0.8083,2.26324 -1.95495,0.8083 -1.13162,1.93993 -1.45495,-0.32332 -0.16166,-1.77827 1.29329,-2.4249 2.10158,-4.68816 1.77827,-1.6166 0.99083,-2.35785 -2.56045,-1.90134 -1.97482,-10.36699 -3.54747,-1.34198 -1.94626,-2.30833 -12.12971,-2.721644 -2.87589,-1.01205 -8.21312,-2.16729 -7.91792,-1.15875 -3.76516,-5.13067 -0.7504,0.55401 -1.19791,-0.16166 -0.64665,-1.13162 -1.33401,0.29655 -1.13163,0.16166 -1.77826,0.96996 -0.96997,-0.64664 0.64665,-1.93993 1.93992,-3.07155 1.13162,-1.13162 -1.93992,-1.45494 -2.10159,0.8083 -2.90989,1.93992 -7.43638,3.23321 -2.90989,0.64664 -2.90988,-0.48498 -0.98173,-0.87825 -2.1167,2.83518 -0.22862,2.74347 v 8.459034 l -1.14312,1.60037 -5.25832,3.88657 -2.28622,5.94419 0.45724,0.22862 2.51485,2.05761 0.68586,3.20072 -1.82898,3.20071 v 3.88659 l 0.45725,6.63005 2.97209,2.9721 h 3.42935 l 1.82898,3.20072 3.42933,0.45724 3.88659,5.71557 7.0873,4.11521 2.0576,2.74347 0.9145,7.43024 0.68586,3.31502 2.28623,1.60036 0.22862,1.37174 -2.0576,3.42933 0.22862,3.20073 2.51485,3.88658 2.51485,1.14311 2.97209,0.45724 1.34234,1.38012 z"
     sodipodi:nodetypes="ccccccccccccccccccccccccccccccccccccccccccccccccccccccccccccccccccccccccccccccccccccccccc" />
  
   </a>
   <path
     style="fill:#d3d3d3;fill-opacity:1;stroke:#ffffff;stroke-width:0.75;stroke-miterlimit:4;stroke-dasharray:none;stroke-opacity:1"
     id="NC"
     d="m 521.53873,273.34724 2.085,4.91735 3.55653,6.46642 2.4249,2.42491 0.64664,2.26325 -2.4249,0.16166 0.8083,0.64664 -0.32332,4.20317 -2.58657,1.29328 -0.64664,2.10159 -1.29328,2.90989 -3.7182,1.6166 -2.4249,-0.32332 -1.45495,-0.16166 -1.6166,-1.29328 0.32332,1.29328 v 0.96997 h 1.93993 l 0.8083,1.29328 -1.93993,6.30476 h 4.20317 l 0.64665,1.6166 2.26324,-2.26324 1.29329,-0.48499 -1.93993,3.55653 -3.07155,4.84982 h -1.29328 l -1.13163,-0.48498 -2.74822,0.64664 -5.17314,2.42491 -6.46642,5.33479 -3.39487,4.68815 -1.93992,6.46642 -0.48498,2.42491 -4.68816,0.48498 -5.45313,1.33666 -9.94641,-8.20253 -12.60954,-7.59805 -2.90989,-0.80831 -12.60953,1.45495 -4.27646,0.75015 -1.6166,-3.23322 -2.97036,-2.1167 -16.48939,0.48498 -7.27474,0.8083 -9.05299,4.52651 -6.14311,2.58656 -21.17755,2.58658 0.50009,-4.05433 1.77827,-1.45494 2.74824,-0.64665 0.64664,-3.7182 4.20318,-2.74822 3.87985,-1.45496 4.20319,-3.55653 4.36483,-2.10159 0.64664,-3.07156 3.87986,-3.87985 0.64664,-0.16166 c 0,0 0,1.13163 0.80831,1.13163 0.8083,0 1.93993,0.32332 1.93993,0.32332 l 2.26325,-3.55654 2.10159,-0.64665 2.26324,0.32333 1.61662,-3.55653 2.90989,-2.58658 0.48498,-2.10159 0.1875,-3.64819 4.2765,-0.0225 7.19859,-0.85579 15.75723,-2.25243 15.13604,-2.08657 21.64048,-4.71935 19.98332,-4.25857 11.17694,-2.40581 z m 4.27046,33.20657 2.58658,-2.50575 3.15238,-2.58658 1.53578,-0.64664 0.16166,-2.02076 -0.64664,-6.14312 -1.45495,-2.34408 -0.64665,-1.8591 0.72748,-0.2425 2.74824,5.49648 0.40415,4.44567 -0.16166,3.39489 -3.39488,1.53577 -2.82907,2.42492 -1.13162,1.21246 z"
     sodipodi:nodetypes="cccccccccccccccccccccccccccccccccccccccccccccccccccccccccccscccccccccccccccccccccccccccccccc" />
  <path
     style="fill:#d3d3d3;fill-opacity:1;stroke:#ffffff;stroke-width:0.75;stroke-miterlimit:4;stroke-dasharray:none;stroke-opacity:1"
     id="DC"
     d="m 492.37665,229.87554 -1.85828,-1.82417 -1.23263,-0.68629 1.44301,-2.02247 2.88909,1.9485 z"
     sodipodi:nodetypes="cccccc" />
  <path
     style="fill:#d3d3d3;fill-opacity:1;stroke:#ffffff;stroke-width:0.75;stroke-miterlimit:4;stroke-dasharray:none;stroke-opacity:1"
     id="TN"
     d="m 383.23508,297.28581 -51.89309,5.01149 -15.75956,1.77826 -4.6212,0.51271 -3.86835,-0.0277 -0.22097,4.10083 -8.18538,0.26401 -6.95141,0.64664 -8.09083,-0.12386 -1.41378,7.07286 -1.69623,5.48005 -3.29317,2.75084 -1.34874,4.38106 -0.32332,2.58657 -4.04152,2.26324 1.45494,3.55654 -0.96996,4.36484 -0.96838,0.78965 108.15855,-10.40755 0.40327,-3.95494 1.81073,-1.49039 2.83415,-0.74945 0.67193,-3.71698 4.0986,-2.70496 4.04693,-1.49403 4.08358,-3.57033 4.43609,-2.02546 0.52126,-3.06735 4.0646,-3.98499 0.5508,-0.11417 c 0,0 0.0312,1.13162 0.83955,1.13162 0.8083,0 1.93993,0.35457 1.93993,0.35457 l 2.26325,-3.58779 2.07034,-0.64664 2.27511,0.29521 1.59831,-3.53286 2.95525,-2.64391 0.42168,-1.93911 0.30896,-3.71115 -2.14655,-0.19977 -2.60168,2.02833 -6.99331,0.0291 -18.35929,2.38682 z"
     sodipodi:nodetypes="ccccccccccccccccccccccccccccccsccccccccccccc" />
  <path
     style="fill:#d3d3d3;fill-opacity:1;stroke:#ffffff;stroke-width:0.75;stroke-miterlimit:4;stroke-dasharray:none;stroke-opacity:1"
     id="AR"
     d="m 280.38197,322.08466 -3.97988,0.7167 -5.11215,-0.63403 0.4207,-1.60207 2.97975,-2.56669 0.94338,-3.65625 -1.82898,-2.9721 -78.41757,2.51485 1.60036,6.85869 -1e-5,8.23042 1.37175,10.97399 0.22862,37.83693 2.28623,1.94329 2.97209,-1.37173 2.74348,1.14311 0.68034,6.5733 55.62126,-1.1406 1.14563,-2.09037 -0.28662,-3.54951 -1.82563,-2.9721 1.59869,-1.48521 -1.59869,-2.5115 0.6842,-2.50983 1.36839,-5.60543 2.51819,-2.06263 -0.68587,-2.28456 3.65797,-5.37179 2.74347,-1.36839 -0.11348,-1.49358 -0.34544,-1.82564 2.85695,-5.59873 2.40304,-1.25659 0.38413,-3.42763 1.77067,-1.2417 -3.14352,-0.48427 -1.34146,-4.01044 2.80408,-2.37671 0.55026,-2.0192 1.27948,-4.04661 z"
     sodipodi:nodetypes="cccccccccccccccccccccccccccccccccccccccc" />
     <a href="https://google.com/search?q=Missouri" target="/blank">
  <path
     style="fill:#d3d3d3;fill-opacity:1;stroke:#ffffff;stroke-width:0.75;stroke-miterlimit:4;stroke-dasharray:none;stroke-opacity:1"
     id="MO"
     d="m 244.99742,227.14486 -2.51987,-3.08725 -1.14312,-2.28623 -64.35723,2.40054 -2.28626,0.11431 1.25743,2.51485 -0.22862,2.28622 2.51484,3.88659 3.0864,4.11521 3.08641,2.74347 2.16123,0.22862 1.49673,0.9145 v 2.97209 l -1.82897,1.60036 -0.45726,2.28622 2.05761,3.42935 2.51486,2.97209 2.51484,1.82898 1.37173,11.65975 0.31414,36.07221 0.22862,4.68675 0.45724,5.38351 22.43299,-0.86682 23.20603,-0.68587 20.80466,-0.80101 11.65474,-0.2303 2.1694,3.426 -0.68419,3.3075 -3.08725,2.40304 -0.57239,1.83734 5.37849,0.45726 3.89496,-0.68588 1.71718,-5.49363 0.65142,-5.85679 2.09803,-2.55516 2.59603,-1.48689 0.0514,-3.05024 1.01602,-1.93648 -1.69423,-2.54377 -1.33093,0.98426 -1.99262,-2.22724 -1.28503,-4.759 0.80101,-2.5182 -1.94413,-3.42766 -1.83064,-4.5758 -4.79941,-0.79934 -6.9688,-5.59875 -1.71886,-4.11353 0.79935,-3.20072 2.05927,-6.05767 0.45892,-2.86363 -1.94914,-1.03131 -6.85534,-0.79767 -1.02797,-1.71216 -0.1118,-4.23036 -5.48694,-3.43101 -6.97551,-7.7715 -2.28622,-7.31593 -0.23029,-4.22532 z"
     sodipodi:nodetypes="cccccccccccccccccccccccccccccccccccccccccccccccccccccccccccc" />
     </a>
  <path
     style="fill:#d3d3d3;fill-opacity:1;stroke:#ffffff;stroke-width:0.75;stroke-miterlimit:4;stroke-dasharray:none;stroke-opacity:1"
     id="GA"
     d="m 358.84949,334.5835 v 2.18242 l 0.16166,2.1016 0.64664,3.39487 3.39488,7.92137 2.42491,9.86131 1.45494,6.14311 1.61661,4.84981 1.45495,6.95141 2.10159,6.30477 2.58657,3.39488 0.48498,3.39487 1.93993,0.8083 0.16166,2.1016 -1.77827,4.84981 -0.48498,3.23322 -0.16166,1.93993 1.61661,4.36484 0.32332,5.3348 -0.80831,2.42491 0.64665,0.80831 1.45495,0.8083 0.2047,3.21809 2.23301,3.34953 2.25044,2.16205 7.92138,0.16166 10.81975,-0.64664 21.51239,-1.29328 5.44572,-0.67437 4.57725,0.0277 0.16166,2.90989 2.58657,0.8083 0.32332,-4.36484 -1.61661,-4.5265 1.13163,-1.6166 5.81978,0.8083 4.97741,0.31778 -0.77542,-6.29879 2.26324,-10.02295 1.45495,-4.20318 -0.48499,-2.58656 3.33441,-6.2443 -0.5103,-1.35168 -1.91341,0.70458 -2.58656,-1.2933 -0.64665,-2.10159 -1.29328,-3.55653 -2.26326,-2.10159 -2.58656,-0.64664 -1.61661,-4.84982 -2.92501,-6.335 -4.20317,-1.93993 -2.1016,-1.93993 -1.29329,-2.58657 -2.10158,-1.93993 -2.26325,-1.29329 -2.26325,-2.90989 -3.07155,-2.26324 -4.52651,-1.77828 -0.48498,-1.45494 -2.42491,-2.90989 -0.48498,-1.45495 -3.39488,-4.97048 -3.51987,0.0992 -3.75491,-2.35614 -1.41828,-1.29328 -0.32332,-1.77827 0.8708,-1.93992 2.22664,-1.11014 -0.63394,-2.09722 z"
     sodipodi:nodetypes="ccccccccccccccccccccccccccccccccccccccccccccccccccccccccccccccccccccccc" />
  <path
     style="fill:#d3d3d3;fill-opacity:1;stroke:#ffffff;stroke-width:0.75;stroke-miterlimit:4;stroke-dasharray:none;stroke-opacity:1"
     id="SC"
     d="m 451.50048,387.19658 -1.77706,0.9695 -2.58657,-1.29329 -0.64664,-2.10159 -1.29328,-3.55653 -2.26326,-2.1016 -2.58657,-0.64664 -1.6166,-4.84981 -2.74824,-5.98145 -4.20317,-1.93994 -2.1016,-1.93992 -1.29328,-2.58657 -2.10159,-1.93994 -2.26325,-1.29328 -2.26325,-2.90989 -3.07155,-2.26324 -4.52651,-1.77828 -0.48498,-1.45494 -2.4249,-2.90989 -0.48499,-1.45496 -3.39488,-5.17313 -3.39487,0.16166 -4.04152,-2.42492 -1.29328,-1.29328 -0.32332,-1.77827 0.8083,-1.93992 2.26325,-0.96998 -0.51082,-2.28908 5.7681,-2.33657 9.1155,-4.589 7.77473,-0.80831 16.1144,-0.42248 2.63825,1.87743 1.6791,3.35822 4.30235,-0.60998 12.60953,-1.45496 2.90989,0.80831 12.60954,7.59806 10.10808,8.12168 -5.42117,5.45834 -2.58657,6.1431 -0.48498,6.30476 -1.6166,0.8083 -1.13163,2.74823 -2.4249,0.64664 -2.10159,3.55653 -2.74823,2.74823 -2.26324,3.39487 -1.61661,0.8083 -3.55653,3.39487 -2.90989,0.16166 0.96997,3.23321 -5.01148,5.49646 z"
     sodipodi:nodetypes="cccccccccccccccccccccccccccccccccccccccccccccccccccccc" />
   <a href="https://google.com/search?q=Kentukey" target="/blank">
  <path
     style="fill:#d3d3d3;fill-opacity:1;stroke:#ffffff;stroke-width:0.75;stroke-miterlimit:4;stroke-dasharray:none;stroke-opacity:1"
     id="KY"
     d="m 412.5516,274.3024 -2.29332,2.40168 -3.57819,3.99404 -4.92455,5.46467 -1.21577,1.71577 -0.0625,2.10158 -4.37986,2.16409 -5.65812,3.39488 -7.23187,1.79885 -51.86789,4.89886 -15.75956,1.77826 -4.6212,0.51271 -3.86835,-0.0277 -0.22695,4.22028 -8.17941,0.14456 -6.95141,0.64664 -7.98748,-0.0602 1.20778,-1.32008 2.49954,-1.54085 0.22863,-3.20073 0.91449,-1.82898 -1.60682,-2.5389 0.80183,-1.90681 2.26326,-1.77826 2.10158,-0.64665 2.74823,1.29329 3.55654,1.29328 1.13163,-0.32332 0.16166,-2.26325 -1.29329,-2.42491 0.32332,-2.26325 1.93993,-1.45494 2.58658,-0.64665 1.6166,-0.64664 -0.8083,-1.77827 -0.64664,-1.93993 1.50662,-0.9958 c 0.003,-0.0371 1.25396,-3.52229 1.23829,-3.65781 l 3.05322,-1.47868 5.31979,-0.96996 4.49404,-0.48498 1.39244,1.62743 1.52827,0.8708 1.59077,-3.10821 3.18708,-1.28262 2.20509,1.48403 0.41056,0.99904 1.17352,-0.26401 -0.16167,-2.95293 3.13087,-1.74919 2.14809,-1.07348 1.52936,1.66081 3.31815,-0.0442 0.58733,-1.57125 -0.36751,-2.26324 2.60053,-3.9985 4.77655,-3.4379 0.70595,-4.83586 2.92502,-0.45591 3.79146,-1.64568 2.44332,-1.70824 -0.19833,-1.56493 -1.14245,-1.45494 0.56582,-2.99491 4.18485,-0.1175 2.29991,-0.7458 3.34739,1.4291 2.05411,4.36484 5.13229,0.0108 2.05101,2.20819 1.61545,-0.1477 2.60169,-1.27817 5.23706,0.57337 2.57492,0.21751 1.68758,-2.05624 2.61795,-1.42588 1.88178,-0.7071 0.64664,2.83663 2.04343,1.05834 2.64276,2.08249 0.11747,5.67324 0.8083,1.57241 2.58972,1.55628 0.77164,2.29451 4.15989,3.43694 1.80531,3.62324 z"
     sodipodi:nodetypes="ccccccccccccccccccccccccccccccccccccccccccccccccccccccccccccccccccccccccccccccccccccccc" />
     </a>
  <path
     style="fill:#d3d3d3;fill-opacity:1;stroke:#ffffff;stroke-width:0.75;stroke-miterlimit:4;stroke-dasharray:none;stroke-opacity:1"
     id="AL"
     d="m 317.86367,439.44742 -1.4906,-14.3215 -2.74824,-18.75264 0.16166,-14.06449 0.8083,-31.03885 -0.16166,-16.65106 0.16509,-6.41906 44.48448,-3.61945 -0.1478,2.18242 0.16166,2.1016 0.64665,3.39487 3.39488,7.92137 2.4249,9.86131 1.45495,6.14311 1.6166,4.84982 1.45496,6.95141 2.10158,6.30476 2.58657,3.39489 0.48498,3.39486 1.93994,0.80831 0.16166,2.10159 -1.77828,4.84982 -0.48498,3.23322 -0.16166,1.93992 1.61662,4.36485 0.32332,5.33479 -0.80832,2.42492 0.64666,0.8083 1.45494,0.8083 0.32814,2.88882 -5.59766,-0.35355 -6.78975,0.64665 -25.5424,2.90988 -10.41156,1.40677 -0.22138,2.8774 1.77827,1.77827 2.58657,1.93992 0.58086,7.93544 -5.54206,2.5729 -2.74822,-0.32332 2.74822,-1.93993 v -0.96996 l -3.07154,-5.98144 -2.26325,-0.64664 -1.45495,4.36483 -1.29328,2.74823 -0.64664,-0.16166 z"
     sodipodi:nodetypes="cccccccccccccccccccccccccccccccccccccccccccccccc" />
  <path
     style="fill:#d3d3d3;fill-opacity:1;stroke:#ffffff;stroke-width:0.75;stroke-miterlimit:4;stroke-dasharray:none;stroke-opacity:1"
     id="MS"
     d="m 318.11602,438.37628 -0.25426,1.25615 h -5.17314 l -1.45494,-0.8083 -2.10159,-0.32332 -6.78974,1.93992 -1.77826,-0.8083 -2.58657,4.20317 -1.10254,0.77802 -1.12383,-2.48798 -1.14312,-3.88659 -3.42933,-3.20071 1.1431,-5.54455 -0.68586,-0.91449 -1.82898,0.22862 -7.91792,0.87337 -24.5465,0.37337 -0.76974,-2.22536 0.87337,-8.3768 3.11684,-5.67281 5.22707,-9.1449 -0.44574,-2.4326 1.23686,-0.65625 0.43587,-1.91947 -2.31748,-2.07898 -0.11512,-2.14148 -1.83572,-4.12109 -0.109,-5.96277 1.32753,-2.48097 -0.2233,-3.41575 -1.76949,-3.08259 1.52642,-1.48221 -1.57061,-2.49954 0.45725,-1.65221 1.5774,-6.52637 2.48595,-2.03635 -0.64167,-2.36697 3.65797,-5.30253 2.83186,-1.35642 -0.22097,-1.67516 -0.28813,-1.6811 2.87606,-5.56767 2.34572,-1.23151 0.15163,-0.89301 37.34348,-3.88117 0.18486,6.28333 0.16166,16.65106 -0.8083,31.03885 -0.16166,14.06449 2.74824,18.75264 z"
     sodipodi:nodetypes="ccccccccccccccccccccccccccccccccccccccccccccccccccc" />
  <path
     style="fill:#d3d3d3;fill-opacity:1;stroke:#ffffff;stroke-width:0.75;stroke-miterlimit:4;stroke-dasharray:none;stroke-opacity:1"
     id="IA"
     d="m 255.74874,178.616 0.26438,2.7862 2.22372,0.57726 0.95394,1.22533 0.50001,1.85536 3.79284,3.35865 0.68587,2.3915 -0.67434,3.42447 -1.58231,3.23198 -0.79934,2.74179 -2.17275,1.60204 -1.71551,0.5724 -5.57902,1.8602 -1.39146,3.84869 0.72864,1.37174 1.84051,1.68259 -0.28293,4.03629 -1.76315,1.53786 -0.77141,1.64314 0.12722,2.77632 -1.88631,0.45724 -1.62545,1.10491 -0.27879,1.35263 0.27879,2.11492 -1.55102,1.11607 -2.47053,-3.13328 -1.26257,-2.44987 -65.73582,2.51485 -0.91803,0.16544 -2.0524,-4.51596 -0.22862,-6.63007 -1.60036,-4.11521 -0.68586,-5.25831 -2.28623,-3.65797 -0.91448,-4.80107 -2.74348,-7.54455 -1.14311,-5.37264 -1.37174,-2.17191 -1.60036,-2.74346 1.95398,-4.84383 1.37174,-5.71557 -2.74347,-2.05761 -0.45725,-2.74347 0.9145,-2.51485 h 1.71467 l 82.654,-1.26948 0.83426,4.18312 2.25218,1.56097 0.25671,1.42309 -2.02954,3.38931 0.19041,3.20552 2.51486,3.7982 2.52679,1.29362 3.07928,0.50305 z"
     sodipodi:nodetypes="ccccccccccccccccccccccccccccccccccccccccccccccccccccccc" />
  <path
     style="fill:#d3d3d3;fill-opacity:1;stroke:#ffffff;stroke-width:0.75;stroke-miterlimit:4;stroke-dasharray:none;stroke-opacity:1"
     id="MN"
     d="m 161.79501,107.85609 -0.45725,-8.459044 -1.82898,-7.31592 -1.82898,-13.48873 -0.45725,-9.83077 -1.82898,-3.42935 -1.60036,-5.02969 v -10.28802 l 0.68586,-3.88659 -1.82093,-5.451665 30.13242,0.03527 0.32332,-8.244684 0.64664,-0.161661 2.26325,0.484982 1.93992,0.808302 0.8083,5.496456 1.45495,6.1431 1.6166,1.6166 h 4.84982 l 0.32332,1.45495 6.30476,0.32332 v 2.10158 h 4.84981 l 0.32332,-1.29328 1.13162,-1.13162 2.26325,-0.64665 1.29328,0.96997 h 2.90989 l 3.87985,2.58656 5.3348,2.42491 2.42491,0.48498 0.48498,-0.96996 1.45494,-0.48498 0.48498,2.90989 2.58657,1.29328 0.48498,-0.48498 1.29329,0.16166 v 2.10159 l 2.58656,0.96996 h 3.07155 l 1.61661,-0.8083 3.23321,-3.23321 2.58656,-0.48498 0.80831,1.77826 0.48498,1.29328 h 0.96996 l 0.96996,-0.8083 8.89133,-0.32332 1.77826,3.07155 h 0.64665 l 0.71361,-1.08428 4.43991,-0.37066 -0.6121,2.27946 -3.93872,1.83712 -9.24578,4.06113 -4.77474,2.0069 -3.07155,2.58656 -2.42491,3.55653 -2.26324,3.87985 -1.77827,0.80831 -4.52649,5.01147 -1.29329,0.16166 -4.32778,2.75712 -2.46288,3.20511 -0.22862,3.19139 0.0944,8.043354 -1.37604,1.68875 -5.08154,3.75997 -2.23008,5.98241 2.87175,2.23371 0.67989,3.22698 -1.85524,3.23893 0.17079,3.74802 0.36886,6.7304 3.02825,3.00199 h 3.329 l 1.89111,3.1326 3.37917,0.50327 3.85916,5.67147 7.08729,4.11675 2.14315,2.87512 0.67115,6.43951 -81.2115,1.14479 -0.33792,-35.67685 -0.45724,-2.97209 -4.11521,-3.42934 -1.14312,-1.82898 v -1.60037 l 2.0576,-1.60035 1.37174,-1.37174 z"
     sodipodi:nodetypes="ccccccccccccccccccccccccccccccccccccccccccccccccccccccccccccccccccccccccccccccccccccccccccc" />
  <path
     style="fill:#d3d3d3;fill-opacity:1;stroke:#ffffff;stroke-width:0.75;stroke-miterlimit:4;stroke-dasharray:none;stroke-opacity:1"
     id="KS"
     d="m 194.43779,303.41198 -12.61826,0.20443 -46.08909,-0.45723 -44.55748,-2.05763 -24.62974,-1.25741 3.89379,-64.59497 22.08346,0.67517 40.28913,0.8414 44.30124,0.98758 h 5.09563 l 2.1844,2.1624 2.01766,-0.0214 1.6403,1.01247 -0.0625,3.00923 -1.82898,1.72537 -0.33225,2.23217 1.84308,3.40233 2.95236,3.19506 2.32735,1.61446 1.30077,11.24082 z"
     sodipodi:nodetypes="ccccccccccccccccccccc" />
  <path
     style="fill:#d3d3d3;fill-opacity:1;stroke:#ffffff;stroke-width:0.75;stroke-miterlimit:4;stroke-dasharray:none;stroke-opacity:1"
     id="NE"
     d="m 172.65507,219.73228 3.23061,7.01991 -0.12863,2.30252 3.45922,5.49388 2.71929,3.15234 h -5.04948 l -43.48256,-0.93868 -40.78686,-0.8903 -22.25222,-0.78387 1.07277,-21.32785 -32.31824,-2.92025 4.34383,-44.00986 15.54633,1.02881 20.11879,1.1431 17.83257,1.14312 23.77676,1.14311 10.74526,-0.45724 2.0576,2.28622 4.80108,2.9721 1.14311,0.91449 4.34383,-1.37174 3.88659,-0.45724 2.74347,-0.22863 1.82898,1.37174 4.05743,1.60036 2.97209,1.60036 0.45725,1.60036 0.91449,2.0576 h 1.82898 l 0.79798,0.0462 0.89423,4.68182 2.92026,8.46792 0.57253,3.75671 2.52349,3.77425 0.56959,5.11414 1.60724,4.24037 z"
     sodipodi:nodetypes="ccccccccccccccccccccccccccccccccccccc" />
  <text
     x="234.76715"
     y="130.26921"
     id="text864"
     style="font-style:normal;font-stretch:normal;font-size:10px;line-height:0%;font-family:Verdana;text-align:start;writing-mode:lr-tb;text-anchor:start;fill:#000000;stroke-width:3pt">Wisconsin</text>
  <text
     x="261.4104"
     y="227.0872"
     id="text867"
     style="font-style:normal;font-stretch:normal;font-size:10px;line-height:0%;font-family:Verdana;text-align:start;writing-mode:lr-tb;text-anchor:start;fill:#000000;stroke-width:3pt">Illinois</text>
  <text
     x="313.03833"
     y="239.5472"
     id="text899"
     style="font-style:normal;font-stretch:normal;font-size:10px;line-height:0%;font-family:Verdana;text-align:start;writing-mode:lr-tb;text-anchor:start;fill:#000000;stroke-width:3pt">Indiana</text>
  <text
     x="372.68289"
     y="224.70479"
     id="text905"
     style="font-style:normal;font-stretch:normal;font-size:10px;line-height:0%;font-family:Verdana;text-align:start;writing-mode:lr-tb;text-anchor:start;fill:#000000;stroke-width:3pt">Ohio</text>
  <text
     x="206.08875"
     y="270.90143"
     id="text870"
     style="font-style:normal;font-stretch:normal;font-size:10px;line-height:0%;font-family:Verdana;text-align:start;writing-mode:lr-tb;text-anchor:start;fill:#000000;stroke-width:3pt">Missouri</text>
  <text
     x="345.50616"
     y="282.4144"
     id="text902"
     style="font-style:normal;font-stretch:normal;font-size:10px;line-height:0%;font-family:Verdana;text-align:start;writing-mode:lr-tb;text-anchor:start;fill:#000000;stroke-width:3pt">Kentucky</text>
  <flowRoot
     xml:space="preserve"
     id="flowRoot3231"
     style="font-style:normal;font-weight:normal;line-height:0.01%;font-family:sans-serif;letter-spacing:0px;word-spacing:0px;fill:#000000;fill-opacity:1;stroke:none;stroke-width:1px;stroke-linecap:butt;stroke-linejoin:miter;stroke-opacity:1"
     transform="translate(-313.4428,-20.968304)"><flowRegion
       id="flowRegion3233"
       style="font-family:sans-serif"><rect
         id="rect3235"
         width="3.4728906"
         height="23.924358"
         x="752.84552"
         y="383.46893" /></flowRegion><flowPara
       id="flowPara3237"
       style="font-size:11px;line-height:1.25;font-family:sans-serif"> </flowPara></flowRoot>
</svg>
