<?xml version="1.0" encoding="UTF-8" standalone="no"?>
<svg
   xmlns:dc="http://purl.org/dc/elements/1.1/"
   xmlns:cc="http://creativecommons.org/ns#"
   xmlns:rdf="http://www.w3.org/1999/02/22-rdf-syntax-ns#"
   xmlns:svg="http://www.w3.org/2000/svg"
   xmlns="http://www.w3.org/2000/svg"
   xmlns:sodipodi="http://sodipodi.sourceforge.net/DTD/sodipodi-0.dtd"
   xmlns:inkscape="http://www.inkscape.org/namespaces/inkscape"
   width="959"
   height="593"
   id="svg2"
   sodipodi:version="0.32"
   inkscape:version="1.0.1 (3bc2e813f5, 2020-09-07)"
   sodipodi:docname="usa-labels-full.svg"
   inkscape:output_extension="org.inkscape.output.svg.inkscape"
   version="1.1">
  <metadata
     id="metadata62">
    <rdf:RDF>
      <cc:Work
         rdf:about="">
        <dc:format>image/svg+xml</dc:format>
        <dc:type
           rdf:resource="http://purl.org/dc/dcmitype/StillImage" />
        <dc:title />
      </cc:Work>
    </rdf:RDF>
  </metadata>
  <defs
     id="defs60">
    <inkscape:perspective
       sodipodi:type="inkscape:persp3d"
       inkscape:vp_x="0 : 296.5 : 1"
       inkscape:vp_y="0 : 1000 : 0"
       inkscape:vp_z="959 : 296.5 : 1"
       inkscape:persp3d-origin="479.5 : 197.66667 : 1"
       id="perspective64" />
  </defs>
  <sodipodi:namedview
     inkscape:window-height="705"
     inkscape:window-width="1366"
     inkscape:pageshadow="2"
     inkscape:pageopacity="0.0"
     guidetolerance="10.0"
     gridtolerance="10.0"
     objecttolerance="10.0"
     borderopacity="1.0"
     bordercolor="#666666"
     pagecolor="#ffffff"
     id="base"
     showgrid="false"
     inkscape:zoom="0.90191785"
     inkscape:cx="644.66301"
     inkscape:cy="219.33469"
     inkscape:window-x="-8"
     inkscape:window-y="-8"
     inkscape:current-layer="svg2"
     showguides="true"
     inkscape:guide-bbox="true"
     inkscape:window-maximized="1"
     inkscape:document-rotation="0" />
  <path
     style="fill:#d3d3d3;fill-opacity:1;stroke:#ffffff;stroke-width:0.75;stroke-miterlimit:4;stroke-opacity:1;stroke-dasharray:none"
     d="M 593.28125 74.75 L 591 75.3125 L 585.625 79.1875 L 583.4375 80 L 581.625 82.0625 L 583.21875 83.1875 L 585.28125 82.28125 L 588.59375 80.34375 L 593.75 75.1875 L 593.28125 74.75 z M 604.40625 88.96875 L 599.71875 89.46875 L 595.375 91.875 L 593.09375 94.15625 L 591.8125 95.90625 L 590.03125 96.71875 L 588.09375 99.625 L 587.9375 100.9375 L 583.5625 103.03125 L 581.15625 104.96875 L 575.15625 105.9375 L 574.5 106.59375 L 574.5 107.5625 L 570.96875 109.8125 L 568.21875 110.625 L 567.5 111.21875 L 571.21875 116.34375 L 579.09375 117.5 L 587.34375 119.6875 L 590.1875 120.71875 L 602.3125 123.4375 L 604.375 125.71875 L 607.90625 127.09375 L 609.84375 137.40625 L 611.21875 138.4375 L 612.40625 139.46875 L 615.5625 132.46875 L 616.53125 128.40625 L 618.5 124.0625 L 619.28125 123.875 L 620.4375 125.5 L 621.0625 125.5 L 625.59375 123.09375 L 627.0625 124.6875 L 627.53125 124.84375 L 628.84375 123.71875 L 629.96875 120.65625 L 632.375 119.84375 L 639.34375 119.1875 L 641.28125 116.625 L 646.4375 116.4375 L 652.28125 117.75 L 654.0625 117.75 L 657.28125 116.28125 L 659.53125 116.4375 L 661.65625 115.8125 L 665.375 116.28125 L 666.1875 116.625 L 667.46875 116.28125 L 666.1875 115.3125 L 664.875 114.6875 L 661.65625 111.59375 L 661.65625 104.65625 L 660.1875 104.15625 L 659.0625 105.3125 L 652.90625 106.90625 L 650.96875 107.40625 L 648.0625 106.59375 L 647.59375 106.28125 L 647.59375 100.625 L 646.125 100.4375 L 643.53125 101.75 L 639.03125 103.6875 L 632.375 104 L 629 105.125 L 624.9375 108.6875 L 623.34375 109.65625 L 622.1875 109.65625 L 620.90625 110.46875 L 619.28125 110 L 617.6875 108.6875 L 616.21875 109.65625 L 612.34375 109.8125 L 609.59375 107.0625 L 608.125 104 L 606.6875 102.875 L 603.4375 101.90625 L 601.1875 101.90625 L 599.90625 100.625 L 596.34375 103.53125 L 595.375 104.65625 L 594.5625 104.15625 L 594.875 101.59375 L 597.3125 98.34375 L 597.78125 95.90625 L 600.0625 95.125 L 601.5 92.03125 L 605.21875 91.0625 L 605.5625 90.09375 L 604.40625 88.96875 z M 670.9375 112.15625 L 668.75 112.40625 L 667.15625 112.5625 L 666.8125 113.6875 L 667.78125 114.1875 L 668.4375 116.6875 L 671.6875 116.84375 L 672.96875 115.65625 C 672.96875 115.65625 672.88585 114.19292 672.5625 114.03125 C 672.23917 113.86959 670.9375 112.15625 670.9375 112.15625 z M 654.6875 121.46875 L 651.78125 123.25 L 648.875 125.5 L 649.1875 129.0625 L 650.15625 129.375 L 652.28125 129.875 L 652.75 130.6875 L 650.15625 131.5 L 647.59375 131.8125 L 646.125 133.59375 L 645.8125 135.6875 L 646.125 137.3125 L 646.4375 142.8125 L 642.90625 144.90625 L 642.25 144.75 L 642.25 140.53125 L 643.53125 138.125 L 644.1875 135.6875 L 643.375 134.875 L 641.4375 135.6875 L 640.46875 139.90625 L 637.71875 141.03125 L 635.9375 142.96875 L 635.78125 143.9375 L 636.4375 144.75 L 635.78125 147.34375 L 633.53125 147.8125 L 633.53125 148.9375 L 634.3125 151.375 L 633.1875 157.5 L 631.59375 161.5625 L 632.21875 166.25 L 632.71875 167.375 L 631.90625 169.8125 L 631.59375 170.59375 L 631.25 173.34375 L 634.8125 179.34375 L 637.71875 185.8125 L 639.1875 190.65625 L 638.375 195.34375 L 637.40625 201.3125 L 634.96875 206.5 L 634.65625 209.25 L 631.40625 212.34375 L 635.8125 212.15625 L 657.21875 209.90625 L 664.5 208.90625 L 664.59375 210.59375 L 671.4375 209.375 L 681.75 207.875 L 685.59375 207.40625 L 685.75 206.8125 L 685.90625 205.375 L 688 201.65625 L 690 199.90625 L 689.78125 194.84375 L 691.375 193.25 L 692.46875 192.90625 L 692.6875 189.375 L 694.21875 186.34375 L 695.28125 186.9375 L 695.4375 187.59375 L 696.25 187.75 L 698.1875 186.78125 L 697.875 177.25 L 694.625 169 L 692.375 159.9375 L 689.9375 156.71875 L 687.34375 154.9375 L 685.75 156.0625 L 681.84375 157.84375 L 679.90625 162.84375 L 677.15625 166.5625 L 676.03125 167.21875 L 674.59375 166.5625 C 674.59375 166.5625 671.99459 165.11539 672.15625 164.46875 C 672.31791 163.82211 672.65625 159.46875 672.65625 159.46875 L 676.03125 158.15625 L 676.84375 154.78125 L 677.5 152.1875 L 679.90625 150.5625 L 679.59375 140.53125 L 677.96875 138.28125 L 676.6875 137.46875 L 675.875 135.375 L 676.6875 134.5625 L 678.3125 134.875 L 678.46875 133.25 L 676.03125 131 L 674.75 128.40625 L 672.15625 128.40625 L 667.625 126.96875 L 662.125 123.5625 L 659.375 123.5625 L 658.75 124.21875 L 657.78125 123.71875 L 654.6875 121.46875 z "
     id="MI" />
  <path
     style="fill:#d3d3d3;fill-opacity:1;stroke:#ffffff;stroke-opacity:1;stroke-width:0.75;stroke-miterlimit:4;stroke-dasharray:none"
     id="NY"
     d="M 830.37944,188.7456 L 829.24781,187.77564 L 826.66123,187.61398 L 824.39799,185.67406 L 822.76738,179.54493 L 819.30892,179.63547 L 816.86521,176.92727 L 797.47989,181.30921 L 754.47811,190.0389 L 746.94846,191.26689 L 746.2103,184.79855 L 747.6384,183.67317 L 748.93168,182.54155 L 749.90165,180.92494 L 751.67991,179.79332 L 753.61984,178.01505 L 754.10482,176.39845 L 756.2064,173.65022 L 757.33803,172.68026 L 757.17637,171.71029 L 755.88308,168.63875 L 754.10482,168.47709 L 752.16489,162.33399 L 755.07478,160.55572 L 759.43961,159.10078 L 763.48113,157.80749 L 766.71434,157.32251 L 773.01909,157.16085 L 774.95902,158.45414 L 776.57562,158.6158 L 778.67721,157.32251 L 781.26378,156.19089 L 786.43691,155.70591 L 788.5385,153.92764 L 790.31676,150.69443 L 791.93337,148.75451 L 794.03495,148.75451 L 795.97488,147.62288 L 796.13654,145.35964 L 794.6816,143.25805 L 794.35828,141.80311 L 795.4899,139.70152 L 795.4899,138.24658 L 793.71163,138.24658 L 791.93337,137.43828 L 791.12507,136.30665 L 790.96341,133.72008 L 796.78318,128.22363 L 797.42982,127.41533 L 798.88477,124.50544 L 801.79466,119.97894 L 804.54289,116.26075 L 806.64447,113.83585 L 809.05957,112.01024 L 812.14093,110.7643 L 817.63738,109.47101 L 820.87059,109.63267 L 825.39709,108.17773 L 832.96228,106.10656 L 833.48207,111.08623 L 835.90699,117.55267 L 836.71529,122.72582 L 835.74533,126.60568 L 838.3319,131.13218 L 839.1402,133.23377 L 838.3319,136.14367 L 841.2418,137.43695 L 841.88844,137.76027 L 844.96,148.75321 L 844.42371,153.81288 L 843.93873,164.64415 L 844.74703,170.14062 L 845.55533,173.69716 L 847.01028,180.9719 L 847.01028,189.05494 L 845.87865,191.31819 L 847.71798,193.31098 L 848.51453,194.9894 L 846.57461,196.76767 L 846.89793,198.06095 L 848.19121,197.73763 L 849.64616,196.44435 L 851.9094,193.85778 L 853.04103,193.21114 L 854.65763,193.85778 L 856.92088,194.01944 L 864.84224,190.13959 L 867.75213,187.39136 L 869.04541,185.93642 L 873.24858,187.55302 L 869.85371,191.10955 L 865.97386,194.01944 L 858.8608,199.35423 L 856.27424,200.3242 L 850.45446,202.26412 L 846.41295,203.39575 L 845.23821,202.86282 L 844.99419,199.17429 L 845.47917,196.42605 L 845.31751,194.32447 L 842.504,192.62547 L 837.9775,191.6555 L 834.09764,190.52388 L 830.37944,188.7456 z" />
  <path
     style="fill:#d3d3d3;fill-opacity:1;stroke:#ffffff;stroke-opacity:1;stroke-width:0.75;stroke-miterlimit:4;stroke-dasharray:none"
     id="PA"
     d="M 825.1237,224.69205 L 826.43212,224.42105 L 828.76165,223.1678 L 829.97353,220.68473 L 831.59014,218.42148 L 834.82335,215.34992 L 834.82335,214.54162 L 832.39844,212.92502 L 828.8419,210.5001 L 827.87194,207.91353 L 825.1237,207.59021 L 824.96204,206.45858 L 824.15374,203.71035 L 826.417,202.57873 L 826.57866,200.15381 L 825.28536,198.86052 L 825.44702,197.24391 L 827.38696,194.17236 L 827.38696,191.1008 L 830.08459,188.45492 L 829.16431,187.77994 L 826.64023,187.58703 L 824.34574,185.64711 L 822.79582,179.53105 L 819.29124,179.63157 L 816.83601,176.92824 L 798.74502,181.12601 L 755.74324,189.8557 L 746.85189,191.31064 L 746.23122,184.78925 L 740.86869,189.8569 L 739.5754,190.34188 L 735.37311,193.35077 L 738.28387,212.48822 L 740.76553,222.21758 L 744.33733,241.47907 L 747.60664,240.84139 L 759.55022,239.33892 L 797.47685,231.67372 L 812.35306,228.8504 L 820.65341,227.22804 L 820.92052,226.98951 L 823.02212,225.37289 L 825.1237,224.69205 z"
     sodipodi:nodetypes="cccccccccccccccccccccccccccccccccccccccccccc" />
  <path
     style="fill:#d3d3d3;fill-opacity:1;stroke:#ffffff;stroke-opacity:1;stroke-width:0.75;stroke-miterlimit:4;stroke-dasharray:none"
     id="NJ"
     d="M 829.67942,188.46016 L 827.35687,191.19443 L 827.35687,194.26599 L 825.41693,197.33754 L 825.25527,198.95416 L 826.54857,200.24744 L 826.38691,202.67236 L 824.12365,203.80398 L 824.93195,206.55221 L 825.09361,207.68384 L 827.84185,208.00716 L 828.81181,210.59373 L 832.36835,213.01865 L 834.79326,214.63525 L 834.79326,215.44356 L 831.81005,218.14012 L 830.19344,220.40336 L 828.73849,223.1516 L 826.47524,224.44488 L 826.01279,226.04736 L 825.77029,227.25982 L 825.16106,229.86656 L 826.25333,232.11075 L 829.48654,235.02064 L 834.33635,237.28389 L 838.37786,237.93053 L 838.53952,239.38547 L 837.73122,240.35543 L 838.05454,243.10366 L 838.86284,243.10366 L 840.96443,240.67876 L 841.77273,235.82894 L 844.52096,231.78743 L 847.59251,225.32101 L 848.72413,219.82456 L 848.07749,218.69293 L 847.91583,209.31662 L 846.29922,205.92176 L 845.1676,206.73006 L 842.41937,207.05338 L 841.93439,206.5684 L 843.06602,205.59843 L 845.1676,203.65851 L 845.23066,202.56468 L 844.84627,199.13084 L 845.41964,196.3826 L 845.30217,194.41359 L 842.49463,192.66324 L 837.40249,191.48748 L 833.26505,190.10585 L 829.67942,188.46016 z"
     sodipodi:nodetypes="ccccccccccccccccccccccccccccccccccccccccccccccccccc" />
  <path
     style="fill:#d3d3d3;fill-opacity:1;stroke:#ffffff;stroke-opacity:1;stroke-linecap:butt;stroke-width:0.75;stroke-miterlimit:4;stroke-dasharray:none"
     id="DE"
     d="M 825.6261,228.2791 L 825.99441,226.13221 L 826.36948,224.44116 L 824.74648,224.83892 L 823.13102,225.30648 L 820.92476,227.07078 L 822.64488,232.11366 L 824.90814,237.77178 L 827.00972,247.47143 L 828.62634,253.77621 L 833.63782,253.61455 L 839.77994,252.43387 L 837.51571,245.0476 L 836.54574,245.53258 L 832.98921,243.10768 L 831.21095,238.41952 L 829.27102,234.86299 L 826.1239,231.99268 L 825.25974,229.89456 L 825.6261,228.2791 z"
     sodipodi:nodetypes="cccccccccccccccccccc" />
  <path
     style="fill:#d3d3d3;fill-opacity:1;stroke:#ffffff;stroke-opacity:1;stroke-width:0.75;stroke-miterlimit:4;stroke-dasharray:none"
     id="MD"
     d="M 839.79175,252.41476 L 833.7832,253.6186 L 828.6403,253.73606 L 826.79674,246.81373 L 824.87193,237.64441 L 822.29931,231.45596 L 821.01093,227.05763 L 813.50491,228.67999 L 798.6287,231.50331 L 761.17727,239.05421 L 762.30857,244.06587 L 763.27853,249.72398 L 763.60185,249.40066 L 765.70345,246.97576 L 767.96669,244.3581 L 770.3916,243.74254 L 771.84656,242.28759 L 773.62482,239.70102 L 774.9181,240.34767 L 777.82799,240.02434 L 780.41457,237.92276 L 782.42146,236.46949 L 784.26669,235.98451 L 785.91104,237.11446 L 788.82093,238.5694 L 790.76085,240.34767 L 791.97331,241.88345 L 796.09566,243.58088 L 796.09566,246.49077 L 801.59212,247.78406 L 802.73656,248.32604 L 804.14846,246.29772 L 807.03043,248.26788 L 805.75226,250.74981 L 804.98699,254.73547 L 803.20873,257.32204 L 803.20873,259.42363 L 803.85537,261.2019 L 808.91932,262.55759 L 813.23042,262.49587 L 816.30196,263.46584 L 818.40355,263.78916 L 819.37351,261.68757 L 817.91857,259.58599 L 817.91857,257.80772 L 815.49366,255.70613 L 813.39208,250.20968 L 814.68536,244.87488 L 814.5237,242.7733 L 813.23042,241.48001 C 813.23042,241.48001 814.68536,239.86341 814.68536,239.21677 C 814.68536,238.57012 815.17034,237.11518 815.17034,237.11518 L 817.11027,235.8219 L 819.05019,234.20529 L 819.53517,235.17526 L 818.08023,236.79186 L 816.78695,240.51005 L 817.11027,241.64167 L 818.88853,241.96499 L 819.37351,247.46145 L 817.27193,248.43141 L 817.59525,251.98794 L 818.08023,251.82628 L 819.21185,249.88636 L 820.82846,251.66462 L 819.21185,252.95791 L 818.88853,256.35278 L 821.4751,259.74765 L 825.35495,260.23263 L 826.97156,259.42433 L 830.20811,263.60726 L 831.56646,264.14356 L 838.22013,261.34661 L 840.22771,257.32274 L 839.79175,252.41476 z M 823.82217,261.44348 L 824.95379,263.94923 L 825.11545,265.7275 L 826.24708,267.5866 C 826.24708,267.5866 827.13622,266.69746 827.13622,266.37414 C 827.13622,266.05082 826.40875,263.30258 826.40875,263.30258 L 825.68127,260.95849 L 823.82217,261.44348 z"
     sodipodi:nodetypes="ccccccccccccccccccccccccccccccccccccccccccccccccccsccccccccccccccccccccccccccccsccc" />
  <path
     style="fill:#d3d3d3;fill-opacity:1;stroke:#ffffff;stroke-opacity:1;stroke-width:0.75;stroke-miterlimit:4;stroke-dasharray:none"
     id="VA"
     d="M 831.63885,266.06892 L 831.49494,264.12189 L 837.94837,261.57201 L 837.17796,264.78985 L 834.25801,268.56896 L 833.83992,273.15478 L 834.30167,276.54522 L 832.4737,281.52338 L 830.30943,283.43952 L 828.83909,278.79871 L 829.28498,273.3496 L 830.87198,269.16653 L 831.63885,266.06892 z M 834.97904,294.37028 L 776.80486,306.94571 L 739.37789,312.22478 L 732.69956,311.8496 L 730.11431,313.77598 L 722.77518,313.99667 L 714.39307,314.97434 L 703.47811,316.58896 L 713.94754,310.97776 L 713.93442,308.90283 L 715.45447,306.7567 L 726.00825,295.25527 L 729.95497,299.73273 L 733.73798,300.69671 L 736.28144,299.55639 L 738.51866,298.24523 L 741.05527,299.58875 L 744.96944,298.16099 L 746.84617,293.60465 L 749.44709,294.14467 L 752.30233,292.01342 L 754.1016,292.50702 L 756.92881,288.83045 L 757.27706,286.74734 L 756.3134,285.47177 L 757.31617,283.60514 L 762.59044,271.32799 L 763.20721,265.59291 L 764.4361,265.06937 L 766.61463,267.51224 L 770.55049,267.21107 L 772.4797,259.63744 L 775.27369,259.07658 L 776.32344,256.33551 L 778.90326,253.98863 L 781.67509,248.29344 L 781.76002,243.22589 L 791.58153,247.04871 C 792.26238,247.38913 792.41441,241.99956 792.41441,241.99956 L 796.06697,243.59789 L 796.1353,246.53605 L 801.91955,247.83554 L 804.0525,249.01174 L 805.71242,251.06743 L 805.05787,254.7161 L 803.11043,257.30708 L 803.22028,259.36615 L 803.80924,261.21906 L 808.78799,262.48749 L 813.23926,262.52737 L 816.30809,263.48601 L 818.2516,263.79531 L 818.96641,266.88377 L 822.15685,267.2863 L 823.02492,268.48632 L 822.58543,273.1764 L 823.96016,274.27895 L 823.48121,276.20934 L 824.71062,276.99911 L 824.48882,278.38371 L 821.79483,278.28877 L 821.88379,279.90429 L 824.16478,281.44716 L 824.28632,282.85906 L 826.05943,284.64444 L 826.55122,287.16857 L 823.99818,288.54988 L 825.5704,290.04418 L 831.37142,288.35835 L 834.97904,294.37028 z"
     sodipodi:nodetypes="ccccccccccccccccccccccccccccccccccccccccccccccccccccccccccccccccccccccccccccccccccc" />
  <path
     style="fill:#d3d3d3;fill-opacity:1;stroke:#ffffff;stroke-opacity:1;stroke-width:0.75;stroke-miterlimit:4;stroke-dasharray:none"
     id="WV"
     d="M 761.18551,238.96731 L 762.29752,243.91184 L 763.38096,249.94317 L 765.51125,247.36283 L 767.77449,244.29127 L 770.31287,243.67572 L 771.76782,242.22078 L 773.54609,239.63421 L 774.99107,240.28085 L 777.90096,239.95753 L 780.48754,237.85594 L 782.49443,236.40268 L 784.33966,235.91769 L 785.64358,236.93416 L 789.28683,238.75579 L 791.22676,240.53406 L 792.60088,241.82734 L 791.83916,247.38228 L 786.00425,244.84106 L 781.759,243.21904 L 781.65786,248.39747 L 778.91022,253.9342 L 776.38019,256.36086 L 775.1881,259.11025 L 772.54452,259.61035 L 771.64668,263.21223 L 770.60345,267.1619 L 766.63521,267.50264 L 764.31148,265.06376 L 763.24033,265.62317 L 762.60765,271.09287 L 761.25736,274.62737 L 756.29896,285.58234 L 757.19565,286.74304 L 756.98979,288.65158 L 754.1811,292.53605 L 752.3726,291.99176 L 749.40455,294.1515 L 746.86217,293.57929 L 744.86294,298.13486 C 744.86294,298.13486 741.60363,299.56508 740.94003,299.50258 C 740.77952,299.48746 738.47093,298.25348 738.47093,298.25348 L 736.13441,299.63285 L 733.72461,300.67725 L 729.97992,299.78813 L 728.85852,298.61985 L 726.6663,295.59649 L 723.52371,293.60837 L 721.81214,289.98513 L 717.52726,286.51694 L 716.88061,284.25369 L 714.29404,282.79874 L 713.48573,281.18214 L 713.24324,275.92816 L 715.42566,275.84733 L 717.3656,275.03903 L 717.52726,272.2908 L 719.14386,270.83585 L 719.30552,265.82437 L 720.27548,261.94451 L 721.56877,261.29787 L 722.86205,262.42949 L 723.34704,264.20776 L 725.12531,263.23779 L 725.61029,261.62119 L 724.47867,259.84292 L 724.47867,257.41801 L 725.44863,256.12472 L 727.71188,252.72985 L 729.00516,251.27491 L 731.10676,251.75989 L 733.37,250.14327 L 736.44155,246.7484 L 738.70481,242.86854 L 739.02813,237.21043 L 739.51311,232.19894 L 739.51311,227.51078 L 738.38149,224.43923 L 739.35145,222.98427 L 740.63493,221.69099 L 744.12618,241.51811 L 748.75719,240.76696 L 761.18551,238.96731 z"
     sodipodi:nodetypes="ccccccccccccccccccccccccccccccccccccccccscccccccccccccccccccccccccccccccccccccccccc" />
  <path
     style="fill:#d3d3d3;stroke:#ffffff;stroke-opacity:1;fill-opacity:1;stroke-width:0.75;stroke-miterlimit:4;stroke-dasharray:none"
     id="OH"
     d="M 735.32497,193.32832 L 729.23143,197.38167 L 725.35158,199.64492 L 721.95671,203.36311 L 717.9152,207.24296 L 714.68199,208.05126 L 711.7721,208.53624 L 706.27564,211.12281 L 704.17406,211.28447 L 700.77919,208.21292 L 695.60605,208.85957 L 693.01949,207.40462 L 690.63842,206.05379 L 685.74585,206.7572 L 675.56123,208.37381 L 664.35436,210.55854 L 665.64765,225.18882 L 667.42592,238.92999 L 670.01248,262.37079 L 670.5783,267.20196 L 674.70065,267.07294 L 677.12556,266.26463 L 680.48936,267.76777 L 682.55985,272.1326 L 687.69879,272.1155 L 689.59053,274.2342 L 691.3517,274.1689 L 693.89009,272.82744 L 696.39426,273.19894 L 701.81554,273.68162 L 703.54251,271.54894 L 705.88816,270.25566 L 707.95865,269.57481 L 708.60529,272.32305 L 710.38357,273.29301 L 713.85926,275.63708 L 716.04168,275.55626 L 717.3748,275.06378 L 717.55951,272.30225 L 719.14487,270.84729 L 719.24403,266.05457 C 719.24403,266.05457 720.26799,261.94551 720.26799,261.94551 L 721.56726,261.34423 L 722.88861,262.49197 L 723.42676,264.18899 L 725.14589,263.15157 L 725.58487,261.69082 L 724.46818,259.78776 L 724.53447,257.47333 L 725.28347,256.40102 L 727.43623,253.09454 L 728.48645,251.5512 L 730.58804,252.03618 L 732.85129,250.41957 L 735.92284,247.0247 L 738.69433,242.94597 L 739.01466,237.89046 L 739.49964,232.87897 L 739.32286,227.57209 L 738.36802,224.67731 L 738.71926,223.48753 L 740.52365,221.73742 L 738.23486,212.69009 L 735.32497,193.32832 z"
     sodipodi:nodetypes="cccccccccccccccccccccccccccccccccccccccccccccccccccccccccccccccc" />
  <path
     style="fill:#d3d3d3;stroke:#ffffff;stroke-opacity:1;fill-opacity:1;stroke-width:0.75;stroke-miterlimit:4;stroke-dasharray:none"
     id="IN"
     d="M 619.56954,299.97132 L 619.63482,297.11274 L 620.11981,292.58623 L 622.38305,289.67635 L 624.16133,285.79648 L 626.74789,281.59331 L 626.26291,275.77352 L 624.48465,273.02529 L 624.16133,269.79208 L 624.96963,264.29561 L 624.48465,257.3442 L 623.19135,241.33979 L 621.89807,225.98203 L 620.9276,214.26201 L 623.99866,215.15152 L 625.45361,216.12148 L 626.58523,215.79816 L 628.68682,213.85824 L 631.51639,212.24125 L 636.60919,212.07921 L 658.59506,209.81595 L 664.17079,209.28279 L 665.67393,225.239 L 669.92528,262.08055 L 670.52374,267.85215 L 670.15224,270.1154 L 671.38022,271.91077 L 671.47661,273.28332 L 668.95532,274.88283 L 665.41589,276.43414 L 662.21376,276.98442 L 661.6153,281.85135 L 657.04061,285.16382 L 654.24419,289.17426 L 654.56751,291.55099 L 653.98617,293.08519 L 650.6597,293.08519 L 649.07417,291.46859 L 646.58086,292.73079 L 643.8979,294.23393 L 644.05957,297.28838 L 642.86578,297.54641 L 642.3979,296.52827 L 640.23102,295.02513 L 636.9807,296.36661 L 635.42939,299.37286 L 633.99155,298.56456 L 632.5366,296.96505 L 628.07226,297.45004 L 622.47943,298.42 L 619.56954,299.97132 z" />
  <path
     style="fill:#d3d3d3;stroke:#ffffff;stroke-opacity:1;fill-opacity:1;stroke-width:0.75;stroke-miterlimit:4;stroke-dasharray:none"
     id="IL"
     d="M 619.54145,300.34244 L 619.5727,297.11273 L 620.14009,292.46677 L 622.47262,289.55091 L 624.33927,285.47515 L 626.57229,281.47982 L 626.20079,276.22742 L 624.19558,272.68485 L 624.0992,269.33817 L 624.79403,264.06866 L 623.96862,256.89029 L 622.90228,241.11284 L 621.609,226.0955 L 620.68672,214.4563 L 620.41421,213.53491 L 619.60591,210.94834 L 618.31263,207.23015 L 616.69602,205.45188 L 615.24108,202.86532 L 615.00751,197.37636 L 569.21108,199.97461 L 569.4397,202.34656 L 571.72593,203.03243 L 572.64041,204.17554 L 573.09766,206.00452 L 576.98424,209.43386 L 577.67012,211.72009 L 576.98424,215.14943 L 575.15526,218.80739 L 574.4694,221.32223 L 572.18317,223.15122 L 570.35419,223.83709 L 565.09587,225.20882 L 564.41,227.0378 L 563.72413,229.09541 L 564.41,230.46715 L 566.23898,232.06751 L 566.01036,236.18271 L 564.18137,237.78307 L 563.49551,239.38343 L 563.49551,242.1269 L 561.66653,242.58414 L 560.06617,243.72726 L 559.83755,245.099 L 560.06617,247.1566 L 558.3515,248.47117 L 557.3227,251.27181 L 557.77994,254.92976 L 560.06617,262.24569 L 567.3821,269.79024 L 572.86903,273.4482 L 572.64041,277.79203 L 573.55491,279.16377 L 579.95634,279.62101 L 582.69981,280.99275 L 582.01395,284.65071 L 579.72772,290.5949 L 579.04185,293.79562 L 581.32807,297.6822 L 587.72951,302.94052 L 592.30197,303.62639 L 594.35956,308.65609 L 596.41717,311.8568 L 595.50268,314.82889 L 597.10304,318.9441 L 598.93202,321.00171 L 600.34605,320.12102 L 601.25371,318.04623 L 603.46679,316.29903 L 605.59826,315.68463 L 608.20079,316.86443 L 611.82778,318.24013 L 613.01673,317.9419 L 613.2166,315.68345 L 611.9293,313.27166 L 612.23352,310.89494 L 614.07192,309.54749 L 617.09446,308.7372 L 618.35536,308.27868 L 617.74275,306.8918 L 616.95138,304.53743 L 618.38398,303.55647 L 619.54145,300.34244 z"
     sodipodi:nodetypes="ccccccccccccccccccccccccccccccccccccccccccccccccccccccccccccccccccccccccccccccccccc" />
  <path
     style="fill:#d3d3d3;fill-opacity:1;stroke:#ffffff;stroke-width:0.75;stroke-miterlimit:4;stroke-dasharray:none;stroke-opacity:1"
     id="WI"
     d="m 617.06589,197.36866 -0.0667,-3.15742 -1.17911,-4.5265 -0.64664,-6.14309 -1.13162,-2.42491 0.96996,-3.07155 0.8083,-2.90989 1.45495,-2.58656 -0.64665,-3.39487 -0.64664,-3.55653 0.48498,-1.77827 1.93993,-2.42491 0.16166,-2.74823 -0.8083,-1.29328 0.64664,-2.58657 -0.45252,-4.17071 2.74823,-5.65811 2.90989,-6.78974 0.16166,-2.26325 -0.32332,-0.96996 -0.80831,0.48498 -4.20317,6.30476 -2.74823,4.04151 -1.93992,1.77827 -0.8083,2.26324 -1.95495,0.8083 -1.13162,1.93993 -1.45495,-0.32332 -0.16166,-1.77827 1.29329,-2.4249 2.10158,-4.68816 1.77827,-1.6166 0.99083,-2.35785 -2.56045,-1.90134 -1.97482,-10.36699 -3.54747,-1.34198 -1.94626,-2.30833 -12.12971,-2.72164 -2.87589,-1.01205 -8.21312,-2.16729 -7.91792,-1.15875 -3.76516,-5.13067 -0.7504,0.55401 -1.19791,-0.16166 -0.64665,-1.13162 -1.33401,0.29655 -1.13163,0.16166 -1.77826,0.96996 -0.96997,-0.64664 0.64665,-1.93993 1.93992,-3.07155 1.13162,-1.13162 -1.93992,-1.45494 -2.10159,0.8083 -2.90989,1.93992 -7.43638,3.23321 -2.90989,0.64664 -2.90988,-0.48498 -0.98173,-0.87825 -2.1167,2.83518 -0.22862,2.74347 v 8.45903 l -1.14312,1.60037 -5.25832,3.88657 -2.28622,5.94419 0.45724,0.22862 2.51485,2.05761 0.68586,3.20072 -1.82898,3.20071 v 3.88659 l 0.45725,6.63005 2.97209,2.9721 h 3.42935 l 1.82898,3.20072 3.42933,0.45724 3.88659,5.71557 7.0873,4.11521 2.0576,2.74347 0.9145,7.43024 0.68586,3.31502 2.28623,1.60036 0.22862,1.37174 -2.0576,3.42933 0.22862,3.20073 2.51485,3.88658 2.51485,1.14311 2.97209,0.45724 1.34234,1.38012 z"
     sodipodi:nodetypes="ccccccccccccccccccccccccccccccccccccccccccccccccccccccccccccccccccccccccccccccccccccccccc" />
  <path
     style="fill:#d3d3d3;fill-opacity:1;stroke:#ffffff;stroke-opacity:1;stroke-width:0.75;stroke-miterlimit:4;stroke-dasharray:none"
     id="NC"
     d="M 834.98153,294.31554 L 837.06653,299.23289 L 840.62306,305.69931 L 843.04796,308.12422 L 843.6946,310.38747 L 841.2697,310.54913 L 842.078,311.19577 L 841.75468,315.39894 L 839.16811,316.69222 L 838.52147,318.79381 L 837.22819,321.7037 L 833.50999,323.3203 L 831.08509,322.99698 L 829.63014,322.83532 L 828.01354,321.54204 L 828.33686,322.83532 L 828.33686,323.80529 L 830.27679,323.80529 L 831.08509,325.09857 L 829.14516,331.40333 L 833.34833,331.40333 L 833.99498,333.01993 L 836.25822,330.75669 L 837.55151,330.2717 L 835.61158,333.82823 L 832.54003,338.67805 L 831.24675,338.67805 L 830.11512,338.19307 L 827.3669,338.83971 L 822.19376,341.26462 L 815.72734,346.59941 L 812.33247,351.28756 L 810.39255,357.75398 L 809.90757,360.17889 L 805.21941,360.66387 L 799.76628,362.00053 L 789.81987,353.798 L 777.21033,346.19995 L 774.30044,345.39164 L 761.69091,346.84659 L 757.41445,347.59674 L 755.79785,344.36352 L 752.82749,342.24682 L 736.3381,342.7318 L 729.06336,343.5401 L 720.01037,348.06661 L 713.86726,350.65317 L 692.68971,353.23975 L 693.1898,349.18542 L 694.96807,347.73048 L 697.71631,347.08383 L 698.36295,343.36563 L 702.56613,340.61741 L 706.44598,339.16245 L 710.64917,335.60592 L 715.014,333.50433 L 715.66064,330.43277 L 719.5405,326.55292 L 720.18714,326.39126 C 720.18714,326.39126 720.18714,327.52289 720.99545,327.52289 C 721.80375,327.52289 722.93538,327.84621 722.93538,327.84621 L 725.19863,324.28967 L 727.30022,323.64302 L 729.56346,323.96635 L 731.18008,320.40982 L 734.08997,317.82324 L 734.57495,315.72165 L 734.76245,312.07346 L 739.03895,312.05094 L 746.23754,311.19515 L 761.99477,308.94272 L 777.13081,306.85615 L 798.77129,302.1368 L 818.75461,297.87823 L 829.93155,295.47242 L 834.98153,294.31554 z M 839.25199,327.52211 L 841.83857,325.01636 L 844.99095,322.42978 L 846.52673,321.78314 L 846.68839,319.76238 L 846.04175,313.61926 L 844.5868,311.27518 L 843.94015,309.41608 L 844.66763,309.17358 L 847.41587,314.67006 L 847.82002,319.11573 L 847.65836,322.51062 L 844.26348,324.04639 L 841.43441,326.47131 L 840.30279,327.68377 L 839.25199,327.52211 z"
     sodipodi:nodetypes="cccccccccccccccccccccccccccccccccccccccccccccccccccccccccccscccccccccccccccccccccccccccccccc" />
  <path
     style="fill:#d3d3d3;fill-opacity:1;stroke:#ffffff;stroke-opacity:1;stroke-width:0.75;stroke-miterlimit:4;stroke-dasharray:none"
     id="DC"
     d="M 805.81945,250.84384 L 803.96117,249.01967 L 802.72854,248.33338 L 804.17155,246.31091 L 807.06064,248.25941 L 805.81945,250.84384 z"
     sodipodi:nodetypes="cccccc" />
  <path
     style="fill:#d3d3d3;fill-opacity:1;stroke:#ffffff;stroke-opacity:1;stroke-width:0.75;stroke-miterlimit:4;stroke-dasharray:none"
     id="TN"
     d="M 696.67788,318.25411 L 644.78479,323.2656 L 629.02523,325.04386 L 624.40403,325.55657 L 620.53568,325.52885 L 620.31471,329.62968 L 612.12933,329.89369 L 605.17792,330.54033 L 597.08709,330.41647 L 595.67331,337.48933 L 593.97708,342.96938 L 590.68391,345.72022 L 589.33517,350.10128 L 589.01185,352.68785 L 584.97033,354.95109 L 586.42527,358.50763 L 585.45531,362.87247 L 584.48693,363.66212 L 692.64548,353.25457 L 693.04875,349.29963 L 694.85948,347.80924 L 697.69363,347.05979 L 698.36556,343.34281 L 702.46416,340.63785 L 706.51109,339.14382 L 710.59467,335.57349 L 715.03076,333.54803 L 715.55202,330.48068 L 719.61662,326.49569 L 720.16742,326.38152 C 720.16742,326.38152 720.19867,327.51314 721.00697,327.51314 C 721.81527,327.51314 722.9469,327.86771 722.9469,327.86771 L 725.21015,324.27992 L 727.28049,323.63328 L 729.5556,323.92849 L 731.15391,320.39563 L 734.10916,317.75172 L 734.53084,315.81261 L 734.8398,312.10146 L 732.69325,311.90169 L 730.09157,313.93002 L 723.09826,313.95909 L 704.73897,316.34591 L 696.67788,318.25411 z"
     sodipodi:nodetypes="ccccccccccccccccccccccccccccccsccccccccccccc" />
  <path
     style="fill:#d3d3d3;stroke:#ffffff;stroke-opacity:1;fill-opacity:1;stroke-width:0.75;stroke-miterlimit:4;stroke-dasharray:none"
     id="AR"
     d="M 593.82477,343.05296 L 589.84489,343.76966 L 584.73274,343.13563 L 585.15344,341.53356 L 588.13319,338.96687 L 589.07657,335.31062 L 587.24759,332.33852 L 508.83002,334.85337 L 510.43038,341.71206 L 510.43037,349.94248 L 511.80212,360.91647 L 512.03074,398.7534 L 514.31697,400.69669 L 517.28906,399.32496 L 520.03254,400.46807 L 520.71288,407.04137 L 576.33414,405.90077 L 577.47977,403.8104 L 577.19315,400.26089 L 575.36752,397.28879 L 576.96621,395.80358 L 575.36752,393.29208 L 576.05172,390.78225 L 577.42011,385.17682 L 579.9383,383.11419 L 579.25243,380.82963 L 582.9104,375.45784 L 585.65387,374.08945 L 585.54039,372.59587 L 585.19495,370.77023 L 588.0519,365.1715 L 590.45494,363.91491 L 590.83907,360.48728 L 592.60974,359.24558 L 589.46622,358.76131 L 588.12476,354.75087 L 590.92884,352.37416 L 591.4791,350.35496 L 592.75858,346.30835 L 593.82477,343.05296 z"
     sodipodi:nodetypes="cccccccccccccccccccccccccccccccccccccccc" />
  <path
     style="fill:#d3d3d3;stroke:#ffffff;stroke-opacity:1;fill-opacity:1;stroke-width:0.75;stroke-miterlimit:4;stroke-dasharray:none"
     id="MO"
     d="M 558.44022,248.11316 L 555.92035,245.02591 L 554.77723,242.73968 L 490.42,245.14022 L 488.13374,245.25453 L 489.39117,247.76938 L 489.16255,250.0556 L 491.67739,253.94219 L 494.76379,258.0574 L 497.8502,260.80087 L 500.01143,261.02949 L 501.50816,261.94399 L 501.50816,264.91608 L 499.67919,266.51644 L 499.22193,268.80266 L 501.27954,272.23201 L 503.7944,275.2041 L 506.30924,277.03308 L 507.68097,288.69283 L 507.99511,324.76504 L 508.22373,329.45179 L 508.68097,334.8353 L 531.11396,333.96848 L 554.31999,333.28261 L 575.12465,332.4816 L 586.77939,332.2513 L 588.94879,335.6773 L 588.2646,338.9848 L 585.17735,341.38784 L 584.60496,343.22518 L 589.98345,343.68244 L 593.87841,342.99656 L 595.59559,337.50293 L 596.24701,331.64614 L 598.34504,329.09098 L 600.94107,327.60409 L 600.9925,324.55385 L 602.00852,322.61737 L 600.31429,320.0736 L 598.98336,321.05786 L 596.99074,318.83062 L 595.70571,314.07162 L 596.50672,311.55342 L 594.56259,308.12576 L 592.73195,303.54996 L 587.93254,302.75062 L 580.96374,297.15187 L 579.24488,293.03834 L 580.04423,289.83762 L 582.1035,283.77995 L 582.56242,280.91632 L 580.61328,279.88501 L 573.75794,279.08734 L 572.72997,277.37518 L 572.61817,273.14482 L 567.13123,269.71381 L 560.15572,261.94231 L 557.8695,254.62638 L 557.63921,250.40106 L 558.44022,248.11316 z"
     sodipodi:nodetypes="cccccccccccccccccccccccccccccccccccccccccccccccccccccccccccc" />
  <path
     style="fill:#d3d3d3;fill-opacity:1;stroke:#ffffff;stroke-opacity:1;stroke-width:0.75;stroke-miterlimit:4;stroke-dasharray:none"
     id="GA"
     d="M 672.29229,355.5518 L 672.29229,357.73422 L 672.45395,359.83582 L 673.10059,363.23069 L 676.49547,371.15206 L 678.92038,381.01337 L 680.37532,387.15648 L 681.99193,392.00629 L 683.44688,398.9577 L 685.54847,405.26247 L 688.13504,408.65735 L 688.62002,412.05222 L 690.55995,412.86052 L 690.72161,414.96212 L 688.94334,419.81193 L 688.45836,423.04515 L 688.2967,424.98508 L 689.91331,429.34992 L 690.23663,434.68472 L 689.42832,437.10963 L 690.07497,437.91794 L 691.52992,438.72624 L 691.73462,441.94433 L 693.96763,445.29386 L 696.21807,447.45591 L 704.13945,447.61757 L 714.9592,446.97093 L 736.47159,445.67765 L 741.91731,445.00328 L 746.49456,445.03101 L 746.65622,447.9409 L 749.24279,448.7492 L 749.56611,444.38436 L 747.9495,439.85786 L 749.08113,438.24126 L 754.90091,439.04956 L 759.87832,439.36734 L 759.1029,433.06855 L 761.36614,423.0456 L 762.82109,418.84242 L 762.3361,416.25586 L 765.67051,410.01156 L 765.16021,408.65988 L 763.2468,409.36446 L 760.66024,408.07116 L 760.01359,405.96957 L 758.72031,402.41304 L 756.45705,400.31145 L 753.87049,399.66481 L 752.25388,394.81499 L 749.32887,388.47999 L 745.1257,386.54006 L 743.0241,384.60013 L 741.73081,382.01356 L 739.62923,380.07363 L 737.36598,378.78034 L 735.10273,375.87045 L 732.03118,373.60721 L 727.50467,371.82893 L 727.01969,370.37399 L 724.59478,367.4641 L 724.1098,366.00915 L 720.71492,361.03867 L 717.19505,361.13784 L 713.44014,358.7817 L 712.02186,357.48842 L 711.69854,355.71015 L 712.56934,353.77023 L 714.79598,352.66009 L 714.16204,350.56287 L 672.29229,355.5518 z"
     sodipodi:nodetypes="ccccccccccccccccccccccccccccccccccccccccccccccccccccccccccccccccccccccc" />
  <path
     style="fill:#d3d3d3;fill-opacity:1;stroke:#ffffff;stroke-opacity:1;stroke-width:0.75;stroke-miterlimit:4;stroke-dasharray:none"
     id="SC"
     d="M 764.94328,408.16488 L 763.16622,409.13438 L 760.57965,407.84109 L 759.93301,405.7395 L 758.63973,402.18297 L 756.37647,400.08137 L 753.7899,399.43473 L 752.1733,394.58492 L 749.42506,388.60347 L 745.22189,386.66353 L 743.12029,384.72361 L 741.82701,382.13704 L 739.72542,380.1971 L 737.46217,378.90382 L 735.19892,375.99393 L 732.12737,373.73069 L 727.60086,371.95241 L 727.11588,370.49747 L 724.69098,367.58758 L 724.20599,366.13262 L 720.81111,360.95949 L 717.41624,361.12115 L 713.37472,358.69623 L 712.08144,357.40295 L 711.75812,355.62468 L 712.56642,353.68476 L 714.82967,352.71478 L 714.31885,350.4257 L 720.08695,348.08913 L 729.20245,343.50013 L 736.97718,342.69182 L 753.09158,342.26934 L 755.72983,344.14677 L 757.40893,347.50499 L 761.71128,346.89501 L 774.32081,345.44005 L 777.2307,346.24836 L 789.84024,353.84642 L 799.94832,361.9681 L 794.52715,367.42644 L 791.94058,373.56954 L 791.4556,379.8743 L 789.839,380.6826 L 788.70737,383.43083 L 786.28247,384.07747 L 784.18088,387.634 L 781.43265,390.38223 L 779.16941,393.7771 L 777.5528,394.5854 L 773.99627,397.98027 L 771.08638,398.14193 L 772.05635,401.37514 L 767.04487,406.8716 L 764.94328,408.16488 z"
     sodipodi:nodetypes="cccccccccccccccccccccccccccccccccccccccccccccccccccccc" />
  <path
     style="fill:#d3d3d3;fill-opacity:1;stroke:#ffffff;stroke-opacity:1;stroke-width:0.75;stroke-miterlimit:4;stroke-dasharray:none"
     id="KY"
     d="M 725.9944,295.2707 L 723.70108,297.67238 L 720.12289,301.66642 L 715.19834,307.13109 L 713.98257,308.84686 L 713.92007,310.94844 L 709.54021,313.11253 L 703.88209,316.50741 L 696.65022,318.30626 L 644.78233,323.20512 L 629.02277,324.98338 L 624.40157,325.49609 L 620.53322,325.46837 L 620.30627,329.68865 L 612.12686,329.83321 L 605.17545,330.47985 L 597.18797,330.41963 L 598.39575,329.09955 L 600.89529,327.5587 L 601.12392,324.35797 L 602.03841,322.52899 L 600.43159,319.99009 L 601.23342,318.08328 L 603.49668,316.30502 L 605.59826,315.65837 L 608.34649,316.95166 L 611.90303,318.24494 L 613.03466,317.92162 L 613.19632,315.65837 L 611.90303,313.23346 L 612.22635,310.97021 L 614.16628,309.51527 L 616.75286,308.86862 L 618.36946,308.22198 L 617.56116,306.44371 L 616.91452,304.50378 L 618.42114,303.50798 C 618.42442,303.47086 619.6751,299.98569 619.65943,299.85017 L 622.71265,298.37149 L 628.03244,297.40153 L 632.52648,296.91655 L 633.91892,298.54398 L 635.44719,299.41478 L 637.03796,296.30657 L 640.22504,295.02395 L 642.43013,296.50798 L 642.84069,297.50702 L 644.01421,297.24301 L 643.85254,294.29008 L 646.98341,292.54089 L 649.1315,291.46741 L 650.66086,293.12822 L 653.97901,293.08402 L 654.56634,291.51277 L 654.19883,289.24953 L 656.79936,285.25103 L 661.57591,281.81313 L 662.28186,276.97727 L 665.20688,276.52136 L 668.99834,274.87568 L 671.44166,273.16744 L 671.24333,271.60251 L 670.10088,270.14757 L 670.6667,267.15266 L 674.85155,267.03516 L 677.15146,266.28936 L 680.49885,267.71846 L 682.55296,272.0833 L 687.68525,272.09412 L 689.73626,274.30231 L 691.35171,274.15461 L 693.9534,272.87644 L 699.19046,273.44981 L 701.76538,273.66732 L 703.45296,271.61108 L 706.07091,270.1852 L 707.95269,269.4781 L 708.59933,272.31473 L 710.64276,273.37307 L 713.28552,275.45556 L 713.40299,281.1288 L 714.21129,282.70121 L 716.80101,284.25749 L 717.57265,286.552 L 721.73254,289.98894 L 723.53785,293.61218 L 725.9944,295.2707 z"
     sodipodi:nodetypes="ccccccccccccccccccccccccccccccccccccccccccccccccccccccccccccccccccccccccccccccccccccccc" />
  <path
     style="fill:#d3d3d3;fill-opacity:1;stroke:#ffffff;stroke-opacity:1;stroke-width:0.75;stroke-miterlimit:4;stroke-dasharray:none"
     id="AL"
     d="M 631.30647,460.41572 L 629.81587,446.09422 L 627.06763,427.34158 L 627.22929,413.27709 L 628.03759,382.23824 L 627.87593,365.58718 L 628.04102,359.16812 L 672.5255,355.54867 L 672.3777,357.73109 L 672.53936,359.83269 L 673.18601,363.22756 L 676.58089,371.14893 L 679.00579,381.01024 L 680.46074,387.15335 L 682.07734,392.00317 L 683.5323,398.95458 L 685.63388,405.25934 L 688.22045,408.65423 L 688.70543,412.04909 L 690.64537,412.8574 L 690.80703,414.95899 L 689.02875,419.80881 L 688.54377,423.04203 L 688.38211,424.98195 L 689.99873,429.3468 L 690.32205,434.68159 L 689.51373,437.10651 L 690.16039,437.91481 L 691.61533,438.72311 L 691.94347,441.61193 L 686.34581,441.25838 L 679.55606,441.90503 L 654.01366,444.81491 L 643.6021,446.22168 L 643.38072,449.09908 L 645.15899,450.87735 L 647.74556,452.81727 L 648.32642,460.75271 L 642.78436,463.32561 L 640.03614,463.00229 L 642.78436,461.06236 L 642.78436,460.0924 L 639.71282,454.11096 L 637.44957,453.46432 L 635.99462,457.82915 L 634.70134,460.57738 L 634.0547,460.41572 L 631.30647,460.41572 z"
     sodipodi:nodetypes="cccccccccccccccccccccccccccccccccccccccccccccccc" />
  <path
     style="fill:#d3d3d3;stroke:#ffffff;stroke-opacity:1;fill-opacity:1;stroke-width:0.75;stroke-miterlimit:4;stroke-dasharray:none"
     id="MS"
     d="M 631.55882,459.34458 L 631.30456,460.60073 L 626.13142,460.60073 L 624.67648,459.79243 L 622.57489,459.46911 L 615.78515,461.40903 L 614.00689,460.60073 L 611.42032,464.8039 L 610.31778,465.58192 L 609.19395,463.09394 L 608.05083,459.20735 L 604.6215,456.00664 L 605.7646,450.46209 L 605.07874,449.5476 L 603.24976,449.77622 L 595.33184,450.64959 L 570.78534,451.02296 L 570.0156,448.7976 L 570.88897,440.4208 L 574.00581,434.74799 L 579.23288,425.60309 L 578.78714,423.17049 L 580.024,422.51424 L 580.45987,420.59477 L 578.14239,418.51579 L 578.02727,416.37431 L 576.19155,412.25322 L 576.08255,406.29045 L 577.41008,403.80948 L 577.18678,400.39373 L 575.41729,397.31114 L 576.94371,395.82893 L 575.3731,393.32939 L 575.83035,391.67718 L 577.40775,385.15081 L 579.8937,383.11446 L 579.25203,380.74749 L 582.91,375.44496 L 585.74186,374.08854 L 585.52089,372.41338 L 585.23276,370.73228 L 588.10882,365.16461 L 590.45454,363.9331 L 590.60617,363.04009 L 627.94965,359.15892 L 628.13451,365.44225 L 628.29617,382.09331 L 627.48787,413.13216 L 627.32621,427.19665 L 630.07445,445.94929 L 631.55882,459.34458 z"
     sodipodi:nodetypes="ccccccccccccccccccccccccccccccccccccccccccccccccccc" />
  <path
     style="fill:#d3d3d3;stroke:#ffffff;stroke-opacity:1;fill-opacity:1;stroke-width:0.75;stroke-miterlimit:4;stroke-dasharray:none"
     id="IA"
     d="M 569.19154,199.5843 L 569.45592,202.3705 L 571.67964,202.94776 L 572.63358,204.17309 L 573.13359,206.02845 L 576.92643,209.3871 L 577.6123,211.7786 L 576.93796,215.20307 L 575.35565,218.43505 L 574.55631,221.17684 L 572.38356,222.77888 L 570.66805,223.35128 L 565.08903,225.21148 L 563.69757,229.06017 L 564.42621,230.43191 L 566.26672,232.1145 L 565.98379,236.15079 L 564.22064,237.68865 L 563.44923,239.33179 L 563.57645,242.10811 L 561.69014,242.56535 L 560.06469,243.67026 L 559.7859,245.02289 L 560.06469,247.13781 L 558.51367,248.25388 L 556.04314,245.1206 L 554.78057,242.67073 L 489.04475,245.18558 L 488.12672,245.35102 L 486.07432,240.83506 L 485.8457,234.20499 L 484.24534,230.08978 L 483.55948,224.83147 L 481.27325,221.1735 L 480.35877,216.37243 L 477.61529,208.82788 L 476.47218,203.45524 L 475.10044,201.28333 L 473.50008,198.53987 L 475.45406,193.69604 L 476.8258,187.98047 L 474.08233,185.92286 L 473.62508,183.17939 L 474.53958,180.66454 L 476.25425,180.66454 L 558.90825,179.39506 L 559.74251,183.57818 L 561.99469,185.13915 L 562.2514,186.56224 L 560.22186,189.95155 L 560.41227,193.15707 L 562.92713,196.95527 L 565.45392,198.24889 L 568.5332,198.75194 L 569.19154,199.5843 z"
     sodipodi:nodetypes="ccccccccccccccccccccccccccccccccccccccccccccccccccccccc" />
  <path
     style="fill:#d3d3d3;stroke:#ffffff;stroke-opacity:1;fill-opacity:1;stroke-width:0.75;stroke-miterlimit:4;stroke-dasharray:none"
     id="MN"
     d="M 475.23781,128.82439 L 474.78056,120.36535 L 472.95158,113.04943 L 471.1226,99.560705 L 470.66535,89.729927 L 468.83637,86.300584 L 467.23601,81.270889 L 467.23601,70.982869 L 467.92187,67.096282 L 466.10094,61.644615 L 496.23336,61.679886 L 496.55668,53.435202 L 497.20332,53.273541 L 499.46657,53.758523 L 501.40649,54.566825 L 502.21479,60.063281 L 503.66974,66.206379 L 505.28634,67.822984 L 510.13616,67.822984 L 510.45948,69.277928 L 516.76424,69.601249 L 516.76424,71.702835 L 521.61405,71.702835 L 521.93737,70.409551 L 523.06899,69.277928 L 525.33224,68.631286 L 526.62552,69.601249 L 529.53541,69.601249 L 533.41526,72.187816 L 538.75006,74.612723 L 541.17497,75.097705 L 541.65995,74.127742 L 543.11489,73.64276 L 543.59987,76.552649 L 546.18644,77.845933 L 546.67142,77.360951 L 547.96471,77.522612 L 547.96471,79.624198 L 550.55127,80.594161 L 553.62282,80.594161 L 555.23943,79.785858 L 558.47264,76.552649 L 561.0592,76.067668 L 561.86751,77.845933 L 562.35249,79.139216 L 563.32245,79.139216 L 564.29241,78.330914 L 573.18374,78.007593 L 574.962,81.079142 L 575.60865,81.079142 L 576.32226,79.994863 L 580.76217,79.624198 L 580.15007,81.903657 L 576.21135,83.740782 L 566.96557,87.80191 L 562.19083,89.808807 L 559.11928,92.395375 L 556.69437,95.951905 L 554.43113,99.831756 L 552.65286,100.64006 L 548.12637,105.65153 L 546.83308,105.81319 L 542.5053,108.57031 L 540.04242,111.77542 L 539.8138,114.96681 L 539.90816,123.01016 L 538.53212,124.69891 L 533.45058,128.45888 L 531.2205,134.44129 L 534.09225,136.675 L 534.77214,139.90198 L 532.9169,143.14091 L 533.08769,146.88893 L 533.45655,153.61933 L 536.4848,156.62132 L 539.8138,156.62132 L 541.70491,159.75392 L 545.08408,160.25719 L 548.94324,165.92866 L 556.03053,170.04541 L 558.17368,172.92053 L 558.84483,179.36004 L 477.63333,180.50483 L 477.29541,144.82798 L 476.83817,141.85589 L 472.72296,138.42655 L 471.57984,136.59757 L 471.57984,134.9972 L 473.63744,133.39685 L 475.00918,132.02511 L 475.23781,128.82439 z"
     sodipodi:nodetypes="ccccccccccccccccccccccccccccccccccccccccccccccccccccccccccccccccccccccccccccccccccccccccccc" />
  <path
     style="fill:#d3d3d3;stroke:#ffffff;stroke-opacity:1;fill-opacity:1;stroke-width:0.75;stroke-miterlimit:4;stroke-dasharray:none"
     id="KS"
     d="M 507.88059,324.38028 L 495.26233,324.58471 L 449.17324,324.12748 L 404.61576,322.06985 L 379.98602,320.81244 L 383.87981,256.21747 L 405.96327,256.89264 L 446.2524,257.73404 L 490.55364,258.72162 L 495.64927,258.72162 L 497.83367,260.88402 L 499.85133,260.86264 L 501.49163,261.87511 L 501.42913,264.88434 L 499.60015,266.60971 L 499.2679,268.84188 L 501.11098,272.24421 L 504.06334,275.43927 L 506.39069,277.05373 L 507.69146,288.29455 L 507.88059,324.38028 z"
     sodipodi:nodetypes="ccccccccccccccccccccc" />
  <path
     style="fill:#d3d3d3;stroke:#ffffff;stroke-opacity:1;fill-opacity:1;stroke-width:0.75;stroke-miterlimit:4;stroke-dasharray:none"
     id="NE"
     d="M 486.09787,240.70058 L 489.32848,247.72049 L 489.19985,250.02301 L 492.65907,255.51689 L 495.37836,258.66923 L 490.32888,258.66923 L 446.84632,257.73055 L 406.05946,256.84025 L 383.80724,256.05638 L 384.88001,234.72853 L 352.56177,231.80828 L 356.9056,187.79842 L 372.45193,188.82723 L 392.57072,189.97033 L 410.40329,191.11345 L 434.18005,192.25656 L 444.92531,191.79932 L 446.98291,194.08554 L 451.78399,197.05764 L 452.9271,197.97213 L 457.27093,196.60039 L 461.15752,196.14315 L 463.90099,195.91452 L 465.72997,197.28626 L 469.7874,198.88662 L 472.75949,200.48698 L 473.21674,202.08734 L 474.13123,204.14494 L 475.96021,204.14494 L 476.75819,204.19111 L 477.65242,208.87293 L 480.57268,217.34085 L 481.14521,221.09756 L 483.6687,224.87181 L 484.23829,229.98595 L 485.84553,234.22632 L 486.09787,240.70058 z"
     sodipodi:nodetypes="ccccccccccccccccccccccccccccccccccccc" />
  <text
     x="548.20996"
     y="151.23752"
     id="text864"
     style="font-style:normal;font-stretch:normal;font-size:10px;line-height:0%;font-family:Verdana;text-align:start;writing-mode:lr-tb;text-anchor:start;fill:#000000;stroke-width:3pt">Wisconsin</text>
  <text
     x="574.85321"
     y="248.0555"
     id="text867"
     style="font-style:normal;font-stretch:normal;font-size:10px;line-height:0%;font-family:Verdana;text-align:start;writing-mode:lr-tb;text-anchor:start;fill:#000000;stroke-width:3pt">Illinois</text>
  <text
     x="626.48114"
     y="260.5155"
     id="text899"
     style="font-style:normal;font-stretch:normal;font-size:10px;line-height:0%;font-family:Verdana;text-align:start;writing-mode:lr-tb;text-anchor:start;fill:#000000;stroke-width:3pt">Indiana</text>
  <text
     x="686.12567"
     y="245.67308"
     id="text905"
     style="font-style:normal;font-stretch:normal;font-size:10px;line-height:0%;font-family:Verdana;text-align:start;writing-mode:lr-tb;text-anchor:start;fill:#000000;stroke-width:3pt">Ohio</text>
  <text
     x="519.53156"
     y="291.86972"
     id="text870"
     style="font-style:normal;font-stretch:normal;font-size:10px;line-height:0%;font-family:Verdana;text-align:start;writing-mode:lr-tb;text-anchor:start;fill:#000000;stroke-width:3pt">Missouri</text>
  <text
     x="740.93341"
     y="365.44247"
     id="text891"
     style="font-style:normal;font-stretch:normal;font-size:10px;line-height:125%;font-family:Verdana;text-align:start;writing-mode:lr-tb;text-anchor:start;fill:#000000;stroke-width:3pt" />
  <text
     x="658.94897"
     y="303.38269"
     id="text902"
     style="font-style:normal;font-stretch:normal;font-size:10px;line-height:0%;font-family:Verdana;text-align:start;writing-mode:lr-tb;text-anchor:start;fill:#000000;stroke-width:3pt">Kentucky</text>
  <flowRoot
     xml:space="preserve"
     id="flowRoot3231"
     style="font-style:normal;font-weight:normal;line-height:0.01%;font-family:sans-serif;letter-spacing:0px;word-spacing:0px;fill:#000000;fill-opacity:1;stroke:none;stroke-width:1px;stroke-linecap:butt;stroke-linejoin:miter;stroke-opacity:1"><flowRegion
       id="flowRegion3233"
       style="font-family:sans-serif"><rect
         id="rect3235"
         width="3.4728906"
         height="23.924358"
         x="752.84552"
         y="383.46893" /></flowRegion><flowPara
       id="flowPara3237"
       style="font-size:11px;line-height:1.25;font-family:sans-serif"> </flowPara></flowRoot>
</svg>
